<svg width="161" height="110" viewBox="0 0 161 110" fill="none" xmlns="http://www.w3.org/2000/svg">
<path d="M2.9525 84.5247L5.86958 79.8144L0.13042 79.1856L1.95844 84.4158L2.9525 84.5247ZM24.5 108.5L24.4601 108.998L24.5 108.5ZM154.631 11.5175L157.331 16.3555L160.669 11.6445L155.209 10.7015L154.631 11.5175ZM2.27635 82.5416C2.26172 83.2099 2.26731 83.904 2.29632 84.6174L3.2955 84.5768C3.26734 83.8843 3.26193 83.2112 3.27611 82.5635L2.27635 82.5416ZM2.44415 86.6881C2.51327 87.364 2.6042 88.0514 2.71938 88.7456L3.7059 88.582C3.59425 87.909 3.50604 87.2423 3.43896 86.5864L2.44415 86.6881ZM3.12523 90.781C3.2815 91.4489 3.46183 92.1192 3.66834 92.7877L4.62379 92.4926C4.42445 91.8473 4.25014 91.1995 4.09893 90.5532L3.12523 90.781ZM4.3563 94.7532C4.60884 95.3952 4.88808 96.0321 5.19599 96.66L6.09385 96.2197C5.79838 95.6172 5.52998 95.0052 5.2869 94.3872L4.3563 94.7532ZM6.19517 98.4925C6.55312 99.0849 6.9403 99.6654 7.3585 100.23L8.16222 99.6352C7.76331 99.0964 7.39347 98.5421 7.05107 97.9754L6.19517 98.4925ZM8.68361 101.848C9.14743 102.36 9.64167 102.854 10.1679 103.327L10.8366 102.584C10.3363 102.134 9.86618 101.664 9.42472 101.176L8.68361 101.848ZM11.7936 104.644C12.3489 105.049 12.9337 105.432 13.5491 105.791L14.0529 104.927C13.4668 104.585 12.9103 104.221 12.3823 103.836L11.7936 104.644ZM15.4013 106.753C16.0204 107.038 16.6661 107.3 17.3392 107.538L17.6727 106.595C17.0277 106.367 16.4102 106.116 15.8191 105.844L15.4013 106.753ZM19.3349 108.15C19.9876 108.32 20.6632 108.47 21.3622 108.598L21.5414 107.614C20.8667 107.491 20.2159 107.347 19.5882 107.182L19.3349 108.15ZM23.4159 108.898C23.7588 108.937 24.1069 108.97 24.4601 108.998L24.5399 108.002C24.1971 107.974 23.8596 107.942 23.5274 107.904L23.4159 108.898ZM24.4601 108.998C24.8143 109.027 25.1644 109.038 25.5104 109.033L25.4958 108.033C25.1818 108.038 24.8632 108.027 24.5399 108.002L24.4601 108.998ZM27.5559 108.803C28.2296 108.659 28.8845 108.45 29.5215 108.179L29.1299 107.259C28.5497 107.506 27.9558 107.695 27.3471 107.825L27.5559 108.803ZM31.3405 107.21C31.8997 106.851 32.4436 106.442 32.9732 105.988L32.3224 105.229C31.8245 105.656 31.3171 106.036 30.7997 106.369L31.3405 107.21ZM34.4259 104.594C34.8731 104.118 35.3102 103.609 35.7381 103.068L34.9538 102.448C34.5419 102.968 34.1232 103.456 33.6972 103.91L34.4259 104.594ZM36.9378 101.437C37.3039 100.903 37.6635 100.346 38.017 99.7662L37.1633 99.2454C36.8183 99.8109 36.4684 100.353 36.1132 100.871L36.9378 101.437ZM39.0154 98.0435C39.3335 97.4669 39.6469 96.8721 39.9559 96.2602L39.0633 95.8094C38.7593 96.4112 38.4516 96.9953 38.1398 97.5605L39.0154 98.0435ZM40.8148 94.4937C41.0936 93.8987 41.369 93.2899 41.6414 92.6681L40.7254 92.2669C40.4562 92.8815 40.1842 93.4826 39.9092 94.0694L40.8148 94.4937ZM42.4124 90.8547C42.6627 90.2488 42.9106 89.632 43.1563 89.0052L42.2253 88.6403C41.9817 89.2618 41.736 89.8729 41.4881 90.4729L42.4124 90.8547ZM43.8622 87.1619C44.0921 86.5477 44.3202 85.9251 44.5468 85.2945L43.6057 84.9564C43.3805 85.5831 43.1539 86.2016 42.9257 86.8113L43.8622 87.1619ZM45.203 83.4341C45.4181 82.8134 45.632 82.1859 45.8447 81.5521L44.8967 81.2339C44.6849 81.8648 44.4721 82.4892 44.2582 83.1066L45.203 83.4341ZM46.4636 79.6823C46.6681 79.0563 46.8716 78.4248 47.0745 77.7885L46.1217 77.4848C45.9195 78.1191 45.7167 78.7483 45.513 79.3718L46.4636 79.6823ZM47.666 75.9135C47.8626 75.2841 48.0587 74.6504 48.2544 74.013L47.2984 73.7195C47.1031 74.3555 46.9075 74.9876 46.7115 75.6153L47.666 75.9135ZM48.8274 72.133C49.018 71.5036 49.2084 70.871 49.3986 70.2357L48.4407 69.9488C48.2506 70.5833 48.0606 71.2149 47.8704 71.8432L48.8274 72.133ZM49.9623 68.3454C50.1492 67.7162 50.3362 67.0846 50.5233 66.4512L49.5643 66.1679C49.3773 66.8009 49.1904 67.432 49.0037 68.0606L49.9623 68.3454ZM51.0827 64.555C51.268 63.9261 51.4539 63.2949 51.64 62.6634L50.6808 62.3807C50.4945 63.0129 50.309 63.643 50.1235 64.2724L51.0827 64.555ZM52.1996 60.7664C52.3855 60.1369 52.572 59.5067 52.7592 58.8762L51.8005 58.5916C51.6132 59.2227 51.4266 59.8533 51.2405 60.4831L52.1996 60.7664ZM53.3228 56.9842C53.5113 56.354 53.7006 55.7238 53.8907 55.0941L52.9334 54.805C52.743 55.4357 52.5534 56.0667 52.3647 56.6977L53.3228 56.9842ZM54.464 53.207C54.6565 52.5776 54.8499 51.9489 55.0446 51.3215L54.0895 51.0252C53.8944 51.6541 53.7005 52.284 53.5077 52.9147L54.464 53.207ZM55.6336 49.4385C55.8313 48.8117 56.0303 48.1865 56.2308 47.5634L55.2788 47.2572C55.0778 47.8822 54.8782 48.5092 54.6799 49.1376L55.6336 49.4385ZM56.8419 45.6837C57.0471 45.0595 57.2538 44.4376 57.4623 43.8186L56.5146 43.4994C56.3053 44.1209 56.0978 44.745 55.8919 45.3715L56.8419 45.6837ZM58.1003 41.9486C58.3155 41.3264 58.5325 40.7075 58.7516 40.0923L57.8095 39.7569C57.5894 40.375 57.3713 40.9968 57.1552 41.6217L58.1003 41.9486ZM59.4218 38.2393C59.6495 37.6196 59.8795 37.0043 60.1118 36.3936L59.1772 36.038C58.9435 36.6524 58.7122 37.2712 58.4832 37.8943L59.4218 38.2393ZM60.8212 34.5632C61.0645 33.9471 61.3105 33.3364 61.5591 32.7317L60.6343 32.3514C60.3837 32.9606 60.1361 33.5756 59.8911 34.1959L60.8212 34.5632ZM62.3164 30.9294C62.5787 30.3186 62.8441 29.7146 63.1127 29.118L62.2009 28.7074C61.9297 29.3096 61.662 29.9189 61.3975 30.5348L62.3164 30.9294ZM63.9288 27.3498C64.2141 26.7472 64.5031 26.1531 64.7958 25.568L63.9015 25.1205C63.6054 25.7124 63.3132 26.3131 63.025 26.9219L63.9288 27.3498ZM65.6858 23.8402C65.9985 23.2508 66.3155 22.6718 66.6371 22.1038L65.7669 21.6112C65.4406 22.1874 65.1192 22.7744 64.8024 23.3715L65.6858 23.8402ZM67.6176 20.4302C67.9636 19.8599 68.3148 19.3024 68.6712 18.7585L67.8348 18.2103C67.4717 18.7645 67.1144 19.3318 66.7626 19.9115L67.6176 20.4302ZM69.7656 17.1557C70.1507 16.615 70.5419 16.09 70.9393 15.5816L70.1515 14.9657C69.7444 15.4865 69.3444 16.0234 68.9511 16.5756L69.7656 17.1557ZM72.1739 14.0801C72.6043 13.5831 73.0419 13.1054 73.487 12.6477L72.77 11.9506C72.3109 12.4227 71.8604 12.9147 71.418 13.4253L72.1739 14.0801ZM74.8878 11.2965C75.3705 10.8612 75.8616 10.4489 76.3615 10.0608L75.7481 9.27095C75.228 9.67486 74.7181 10.1029 74.218 10.5539L74.8878 11.2965ZM77.9418 8.93408C78.21 8.75954 78.4807 8.59172 78.7538 8.43077L78.2462 7.56923C77.96 7.73784 77.6768 7.91346 77.3964 8.09591L77.9418 8.93408ZM78.7538 8.43077C79.0368 8.26403 79.3217 8.10084 79.6086 7.94115L79.1223 7.06739C78.8283 7.23103 78.5362 7.39829 78.2462 7.56923L78.7538 8.43077ZM81.3526 7.0246C81.9406 6.7332 82.5358 6.45536 83.1377 6.19069L82.7351 5.27528C82.1195 5.54597 81.5105 5.83028 80.9085 6.12861L81.3526 7.0246ZM84.9597 5.43707C85.5721 5.19926 86.1906 4.97412 86.8148 4.76126L86.4921 3.81477C85.855 4.03202 85.2234 4.26193 84.5977 4.5049L84.9597 5.43707ZM88.694 4.16211C89.3238 3.97486 89.9587 3.79931 90.5982 3.63509L90.3495 2.66651C89.6981 2.83378 89.0511 3.01267 88.409 3.20358L88.694 4.16211ZM92.5217 3.17784C93.1634 3.03721 93.8092 2.9073 94.4585 2.78776L94.2775 1.80429C93.6174 1.92581 92.9606 2.05792 92.3076 2.20102L92.5217 3.17784ZM96.4109 2.46074C97.0616 2.36229 97.7153 2.27368 98.3716 2.19454L98.2519 1.20173C97.5859 1.28204 96.9222 1.372 96.2613 1.472L96.4109 2.46074ZM100.34 1.98587C100.997 1.92562 101.656 1.87437 102.316 1.83176L102.252 0.833836C101.583 0.877007 100.915 0.928954 100.249 0.990053L100.34 1.98587ZM104.294 1.72983C104.954 1.70423 105.614 1.68682 106.276 1.67727L106.261 0.677372C105.592 0.687043 104.923 0.704657 104.255 0.730583L104.294 1.72983ZM108.259 1.67176C108.92 1.67751 109.581 1.69073 110.242 1.71105L110.272 0.711525C109.604 0.690979 108.936 0.677615 108.267 0.671798L108.259 1.67176ZM112.224 1.79306C112.885 1.82731 113.545 1.86835 114.204 1.91581L114.276 0.918394C113.61 0.870465 112.943 0.82901 112.276 0.794397L112.224 1.79306ZM116.183 2.07766C116.843 2.13796 117.501 2.20439 118.157 2.27659L118.266 1.28259C117.604 1.20974 116.94 1.14269 116.274 1.08181L116.183 2.07766ZM120.13 2.51171C120.789 2.59615 121.445 2.68613 122.098 2.78125L122.242 1.79169C121.584 1.69576 120.922 1.60501 120.257 1.51982L120.13 2.51171ZM124.057 3.0832C124.715 3.19025 125.37 3.30224 126.02 3.41878L126.196 2.43447C125.541 2.317 124.881 2.20409 124.217 2.09617L124.057 3.0832ZM127.972 3.7847C128.625 3.91226 129.272 4.0441 129.914 4.17981L130.121 3.20144C129.474 3.06469 128.822 2.93183 128.164 2.80328L127.972 3.7847ZM131.861 4.60691C132.513 4.75497 133.158 4.9067 133.796 5.06164L134.032 4.08989C133.389 3.9338 132.739 3.78094 132.083 3.63177L131.861 4.60691ZM135.715 5.54267C136.366 5.71102 137.009 5.88234 137.643 6.05612L137.907 5.09171C137.269 4.91665 136.621 4.74406 135.965 4.57448L135.715 5.54267ZM139.559 6.59648C140.203 6.78345 140.837 6.9725 141.459 7.16302L141.752 6.20685C141.125 6.01489 140.487 5.82442 139.837 5.63606L139.559 6.59648ZM143.346 7.75627C143.992 7.96494 144.624 8.17458 145.24 8.38439L145.562 7.43775C144.941 7.22624 144.304 7.01494 143.653 6.80464L143.346 7.75627ZM147.12 9.04177C147.762 9.27248 148.384 9.50239 148.984 9.73043L149.339 8.79557C148.733 8.56535 148.105 8.33336 147.458 8.10066L147.12 9.04177ZM150.834 10.4536C151.476 10.7124 152.087 10.967 152.665 11.216L153.06 10.2976C152.475 10.0453 151.856 9.78763 151.207 9.52607L150.834 10.4536ZM154.469 12.0238C155.115 12.3253 155.702 12.6139 156.225 12.886L156.687 11.9989C156.149 11.7193 155.549 11.4243 154.892 11.1176L154.469 12.0238Z" fill="#CECECE"/>
</svg>
