<svg width="161" height="115" viewBox="0 0 161 115" fill="none" xmlns="http://www.w3.org/2000/svg">
<path d="M5.90215 16.302L0.580566 17.8439L4.41943 22.1562L6.56707 17.0489L5.90215 16.302ZM44 3.50004L44.3371 3.13079L44 3.50004ZM155.196 78.475L160.569 79.8302L159.431 74.1698L154.999 77.4946L155.196 78.475ZM5.05787 18.4325C5.54453 18.0203 6.05 17.5997 6.57237 17.1729L5.93966 16.3985C5.41275 16.829 4.90276 17.2534 4.41159 17.6694L5.05787 18.4325ZM8.11289 15.9358C8.62051 15.5351 9.1408 15.1312 9.67227 14.7258L9.0658 13.9307C8.52987 14.3395 8.00521 14.7468 7.49332 15.1508L8.11289 15.9358ZM11.2489 13.5438C11.7732 13.1577 12.3061 12.7718 12.8466 12.3878L12.2675 11.5726C11.7222 11.96 11.1845 12.3492 10.6558 12.7387L11.2489 13.5438ZM14.4647 11.2598C15.0052 10.8903 15.5517 10.5239 16.1029 10.1623L15.5543 9.32618C14.9976 9.69142 14.4459 10.0613 13.9003 10.4344L14.4647 11.2598ZM17.7615 9.09796C18.3185 8.74869 18.8789 8.40556 19.4416 8.06995L18.9293 7.21111C18.36 7.55069 17.7932 7.89772 17.2302 8.25076L17.7615 9.09796ZM21.1448 7.08187C21.7199 6.75783 22.2961 6.44308 22.8721 6.1391L22.4054 5.25469C21.8208 5.56318 21.2366 5.88234 20.6539 6.21065L21.1448 7.08187ZM24.6243 5.24843C25.2189 4.95802 25.8119 4.68083 26.402 4.41845L25.9957 3.50471C25.394 3.77225 24.7901 4.05454 24.1855 4.34987L24.6243 5.24843ZM28.2057 3.66009C28.8246 3.41548 29.4383 3.18957 30.0452 2.98424L29.7248 2.03698C29.1008 2.24807 28.4714 2.47982 27.8381 2.73011L28.2057 3.66009ZM31.9107 2.41374C32.5505 2.23995 33.1799 2.09271 33.797 1.97426L33.6085 0.992187C32.9645 1.11581 32.3105 1.26892 31.6486 1.4487L31.9107 2.41374ZM35.715 1.69731C36.3717 1.63605 37.0094 1.61368 37.6256 1.63294L37.6569 0.633426C36.9952 0.612744 36.3158 0.636923 35.6221 0.701634L35.715 1.69731ZM39.516 1.83895C40.1458 1.96198 40.7455 2.1397 41.3125 2.37571L41.6968 1.45251C41.063 1.18869 40.3983 0.992395 39.7077 0.857503L39.516 1.83895ZM42.9379 3.28041C43.188 3.46039 43.4298 3.65646 43.6629 3.86928L44.3371 3.13079C44.0755 2.89193 43.8037 2.67144 43.5221 2.46879L42.9379 3.28041ZM43.6629 3.86928C43.8626 4.05165 44.0522 4.27032 44.2313 4.52689L45.0513 3.95446C44.8354 3.64518 44.5981 3.36903 44.3371 3.13079L43.6629 3.86928ZM45.0666 6.21531C45.2651 6.76932 45.4371 7.3942 45.5838 8.08723L46.5621 7.8801C46.4081 7.15251 46.2247 6.48287 46.0079 5.87799L45.0666 6.21531ZM45.9081 10.0326C45.9892 10.6625 46.0553 11.3297 46.1076 12.0322L47.1048 11.9581C47.0514 11.2402 46.9836 10.555 46.9 9.90493L45.9081 10.0326ZM46.2167 14.039C46.24 14.6775 46.2542 15.3387 46.2603 16.0214L47.2602 16.0126C47.2541 15.3217 47.2397 14.6512 47.216 14.0026L46.2167 14.039ZM46.255 18.0626C46.2467 18.7076 46.2322 19.3685 46.2123 20.0443L47.2118 20.0738C47.232 19.393 47.2465 18.7266 47.2549 18.0756L46.255 18.0626ZM46.138 22.0758C46.1098 22.729 46.0774 23.3941 46.0409 24.0705L47.0395 24.1242C47.0761 23.4446 47.1087 22.7759 47.1371 22.1189L46.138 22.0758ZM45.9224 26.0997C45.8813 26.7557 45.8371 27.4209 45.7901 28.0947L46.7877 28.1643C46.8348 27.4883 46.8792 26.8208 46.9205 26.1622L45.9224 26.0997ZM45.6423 30.1275C45.5928 30.7841 45.541 31.448 45.4873 32.1185L46.4841 32.1983C46.5379 31.5264 46.5898 30.8611 46.6395 30.2027L45.6423 30.1275ZM45.321 34.1494C45.2659 34.8086 45.2093 35.4736 45.1515 36.1437L46.1478 36.2296C46.2057 35.5588 46.2623 34.893 46.3175 34.2327L45.321 34.1494ZM44.9754 38.1613C44.9167 38.8269 44.8571 39.497 44.7968 40.1711L45.7929 40.2601C45.8531 39.5857 45.9128 38.9152 45.9715 38.2491L44.9754 38.1613ZM44.6167 42.1792C44.5564 42.8494 44.4958 43.5232 44.435 44.1999L45.431 44.2894C45.4918 43.6127 45.5524 42.9391 45.6127 42.2687L44.6167 42.1792ZM44.2555 46.203C44.1957 46.8733 44.136 47.5462 44.0766 48.2211L45.0727 48.3088C45.1321 47.6343 45.1918 46.9619 45.2516 46.2919L44.2555 46.203ZM43.9013 50.2311C43.8435 50.9006 43.7862 51.5716 43.7297 52.2439L44.7262 52.3277C44.7826 51.6562 44.8398 50.9859 44.8975 50.3171L43.9013 50.2311ZM43.5628 54.2609C43.5083 54.9312 43.4548 55.6023 43.4024 56.2739L44.3993 56.3516C44.4516 55.6812 44.5051 55.0112 44.5595 54.3419L43.5628 54.2609ZM43.2489 58.2895C43.199 58.9623 43.1504 59.6351 43.1035 60.3076L44.1011 60.3772C44.1479 59.7063 44.1963 59.0349 44.2461 58.3635L43.2489 58.2895ZM42.9676 62.3243C42.924 62.9976 42.8821 63.6701 42.8423 64.3415L43.8406 64.4007C43.8802 63.7313 43.922 63.0606 43.9655 62.389L42.9676 62.3243ZM42.7285 66.3648C42.6928 67.0378 42.6594 67.7093 42.6285 68.3788L43.6274 68.4249C43.6582 67.7578 43.6915 67.0886 43.7271 66.4178L42.7285 66.3648ZM42.5424 70.4074C42.5164 71.0834 42.4932 71.757 42.473 72.4278L43.4726 72.4579C43.4926 71.79 43.5158 71.1192 43.5417 70.4459L42.5424 70.4074ZM42.4215 74.4492C42.4074 75.1298 42.3968 75.8069 42.3898 76.4802L43.3898 76.4905C43.3967 75.8209 43.4073 75.1472 43.4213 74.4699L42.4215 74.4492ZM42.3803 78.4882C42.3811 79.1746 42.386 79.8564 42.3954 80.5331L43.3953 80.5192C43.386 79.847 43.3811 79.1695 43.3803 78.4872L42.3803 78.4882ZM42.4374 82.5475C42.4566 83.2324 42.4808 83.9115 42.5104 84.5841L43.5095 84.5401C43.4801 83.8731 43.4561 83.1994 43.437 82.5195L42.4374 82.5475ZM42.6169 86.6051C42.659 87.288 42.7073 87.9633 42.7619 88.6306L43.7586 88.549C43.7045 87.8887 43.6567 87.22 43.615 86.5435L42.6169 86.6051ZM42.9503 90.6552C43.0216 91.336 43.1003 92.0073 43.1868 92.6685L44.1784 92.5388C44.093 91.8866 44.0153 91.2238 43.9448 90.551L42.9503 90.6552ZM43.481 94.6878C43.5905 95.3668 43.7093 96.0336 43.8378 96.6874L44.819 96.4945C44.6928 95.8525 44.576 95.197 44.4682 94.5286L43.481 94.6878ZM44.2709 98.683C44.4322 99.3588 44.6056 100.019 44.7916 100.661L45.7521 100.383C45.5708 99.7567 45.4015 99.1123 45.2436 98.4508L44.2709 98.683ZM45.41 102.598C45.6437 103.264 45.8936 103.908 46.1606 104.528L47.0792 104.133C46.8219 103.535 46.5802 102.912 46.3534 102.267L45.41 102.598ZM47.0405 106.368C47.3723 106.993 47.7258 107.589 48.1023 108.153L48.934 107.598C48.5775 107.064 48.241 106.497 47.9237 105.9L47.0405 106.368ZM49.3576 109.813C49.8154 110.345 50.3012 110.839 50.8164 111.29L51.4755 110.538C50.9976 110.12 50.5448 109.66 50.116 109.161L49.3576 109.813ZM52.4963 112.544C53.084 112.913 53.7026 113.234 54.3534 113.506L54.7384 112.583C54.1389 112.333 53.5692 112.037 53.0278 111.697L52.4963 112.544ZM56.334 114.151C56.9998 114.312 57.6932 114.426 58.415 114.494L58.5077 113.498C57.8318 113.435 57.1859 113.328 56.5686 113.179L56.334 114.151ZM60.463 114.558C60.8163 114.548 61.1756 114.528 61.541 114.498L61.459 113.502C61.1114 113.53 60.7705 113.549 60.4361 113.558L60.463 114.558ZM61.541 114.498C61.8747 114.471 62.2102 114.441 62.5472 114.408L62.4511 113.413C62.1187 113.445 61.788 113.475 61.459 113.502L61.541 114.498ZM64.5879 114.183C65.2554 114.101 65.9285 114.009 66.6069 113.909L66.4605 112.92C65.7897 113.019 65.1246 113.11 64.4653 113.191L64.5879 114.183ZM68.6407 113.585C69.302 113.472 69.9677 113.351 70.6376 113.223L70.4499 112.241C69.7862 112.368 69.127 112.487 68.4725 112.599L68.6407 113.585ZM72.6503 112.819C73.3089 112.68 73.9711 112.535 74.6366 112.383L74.4143 111.408C73.7541 111.559 73.0974 111.703 72.4444 111.84L72.6503 112.819ZM76.6298 111.912C77.285 111.752 77.943 111.586 78.6036 111.414L78.3521 110.447C77.6961 110.617 77.0427 110.782 76.3923 110.941L76.6298 111.912ZM80.5794 110.887C81.2308 110.708 81.8844 110.524 82.5397 110.336L82.2632 109.375C81.6117 109.562 80.9622 109.745 80.3149 109.922L80.5794 110.887ZM84.5 109.759C85.1475 109.565 85.7966 109.366 86.4469 109.162L86.1487 108.208C85.5018 108.41 84.8562 108.608 84.2123 108.801L84.5 109.759ZM88.393 108.543C89.0368 108.335 89.6815 108.123 90.3269 107.907L90.0097 106.958C89.3673 107.173 88.7256 107.385 88.085 107.592L88.393 108.543ZM92.2599 107.25C92.9001 107.03 93.5408 106.806 94.1816 106.579L93.8477 105.636C93.2095 105.862 92.5715 106.085 91.9341 106.305L92.2599 107.25ZM96.1021 105.89C96.7392 105.658 97.3762 105.424 98.0129 105.187L97.6641 104.25C97.0297 104.486 96.3951 104.719 95.7606 104.95L96.1021 105.89ZM99.9212 104.469C100.555 104.227 101.189 103.983 101.822 103.738L101.46 102.805C100.829 103.051 100.198 103.293 99.5656 103.534L99.9212 104.469ZM103.719 102.994C104.35 102.743 104.981 102.491 105.611 102.237L105.237 101.31C104.609 101.563 103.98 101.815 103.35 102.064L103.719 102.994ZM107.496 101.471C108.126 101.212 108.754 100.952 109.381 100.691L108.996 99.7682C108.371 100.029 107.744 100.288 107.116 100.546L107.496 101.471ZM111.255 99.9039C111.883 99.6381 112.509 99.3714 113.132 99.1037L112.738 98.1848C112.116 98.4518 111.492 98.7179 110.866 98.9829L111.255 99.9039ZM114.998 98.2976C115.624 98.0252 116.247 97.7522 116.868 97.4788L116.464 96.5637C115.845 96.8365 115.223 97.1089 114.599 97.3806L114.998 98.2976ZM118.724 96.6559C119.349 96.3774 119.97 96.0988 120.588 95.8203L120.177 94.9087C119.56 95.1867 118.94 95.4647 118.317 95.7426L118.724 96.6559ZM122.436 94.9824C123.059 94.6983 123.679 94.4145 124.294 94.1314L123.875 93.223C123.261 93.5056 122.643 93.7889 122.021 94.0724L122.436 94.9824ZM126.133 93.2807C126.756 92.9912 127.374 92.7027 127.987 92.4154L127.562 91.51C126.95 91.7968 126.333 92.0849 125.712 92.3738L126.133 93.2807ZM129.816 91.5545C130.44 91.2599 131.057 90.9669 131.668 90.6759L131.239 89.773C130.628 90.0637 130.011 90.3562 129.389 90.6504L129.816 91.5545ZM133.494 89.8036C134.116 89.5054 134.731 89.2097 135.339 88.9168L134.904 88.0161C134.298 88.3087 133.683 88.604 133.062 88.9018L133.494 89.8036ZM137.167 88.0325C137.786 87.7327 138.395 87.4363 138.996 87.1438L138.558 86.2447C137.958 86.537 137.349 86.8331 136.731 87.1327L137.167 88.0325ZM140.832 86.2477C141.447 85.9473 142.05 85.6518 142.643 85.3615L142.203 84.4634C141.611 84.7537 141.007 85.0491 140.393 85.3493L140.832 86.2477ZM144.484 84.4591C145.108 84.1528 145.718 83.8535 146.314 83.5618L145.874 82.6638C145.278 82.9556 144.668 83.255 144.043 83.5613L144.484 84.4591ZM148.127 82.6746C148.756 82.3672 149.366 82.0702 149.954 81.7845L149.518 80.8848C148.928 81.171 148.318 81.4684 147.688 81.7761L148.127 82.6746ZM151.795 80.896C152.44 80.5872 153.053 80.2957 153.634 80.0231L153.209 79.1179C152.625 79.3919 152.009 79.6846 151.363 79.9943L151.795 80.896ZM155.474 79.1738C156.15 78.8683 156.763 78.6003 157.309 78.3729L156.925 77.4497C156.367 77.682 155.744 77.9542 155.062 78.2625L155.474 79.1738Z" fill="#CECECE"/>
</svg>
