<svg width="146" height="104" viewBox="0 0 146 104" fill="none" xmlns="http://www.w3.org/2000/svg">
<path d="M6.20936 79.8662L5.39369 74.3861L0.606305 77.6132L5.38016 80.4251L6.20936 79.8662ZM77.5 2.49982L77.2606 2.06088L77.5 2.49982ZM140.026 25.7892L144.309 29.3028L145.691 23.697L140.265 24.8183L140.026 25.7892ZM4.31213 78.6765C4.70163 79.1713 5.12229 79.6812 5.57392 80.2032L6.33014 79.5488C5.88827 79.0382 5.4775 78.5402 5.09793 78.058L4.31213 78.6765ZM6.89135 81.6642C7.32765 82.1293 7.78675 82.6015 8.26857 83.0789L8.97244 82.3686C8.49917 81.8996 8.04855 81.4362 7.62067 80.98L6.89135 81.6642ZM9.69318 84.4431C10.1626 84.8777 10.6501 85.3152 11.1557 85.7543L11.8114 84.9992C11.3138 84.5671 10.8342 84.1367 10.3726 83.7093L9.69318 84.4431ZM12.6599 87.0202C13.1585 87.4271 13.6726 87.8343 14.2019 88.2407L14.8109 87.4475C14.2894 87.0472 13.7831 86.6461 13.2921 86.2455L12.6599 87.0202ZM15.779 89.4156C16.3023 89.7938 16.839 90.1705 17.389 90.5448L17.9516 89.718C17.4094 89.3491 16.8805 88.9779 16.3648 88.6051L15.779 89.4156ZM19.0299 91.6282C19.5747 91.9771 20.1314 92.3232 20.7001 92.6657L21.216 91.809C20.6553 91.4713 20.1063 91.1301 19.5692 90.7861L19.0299 91.6282ZM22.3982 93.6571C22.9624 93.9763 23.5373 94.2915 24.1229 94.6023L24.5917 93.7189C24.014 93.4124 23.447 93.1015 22.8906 92.7867L22.3982 93.6571ZM25.8731 95.501C26.4548 95.7899 27.0463 96.074 27.6476 96.353L28.0684 95.4458C27.4752 95.1706 26.8917 94.8903 26.3179 94.6054L25.8731 95.501ZM29.4383 97.1549C30.0333 97.412 30.6374 97.6638 31.2504 97.9097L31.6227 96.9817C31.0179 96.739 30.422 96.4906 29.835 96.237L29.4383 97.1549ZM33.0828 98.6172C33.6917 98.8432 34.309 99.0634 34.9347 99.2772L35.2581 98.331C34.6407 98.1199 34.0316 97.9027 33.4307 97.6797L33.0828 98.6172ZM36.8052 99.8896C37.425 100.084 38.0526 100.271 38.6879 100.453L38.9621 99.4909C38.335 99.3121 37.7157 99.1268 37.104 98.9353L36.8052 99.8896ZM40.5806 100.966C41.2095 101.128 41.8455 101.284 42.4887 101.432L42.7137 100.458C42.0788 100.311 41.451 100.158 40.8303 99.9979L40.5806 100.966ZM44.4115 101.851C45.0482 101.981 45.6916 102.105 46.3417 102.221L46.5177 101.237C45.8758 101.122 45.2406 101 44.612 100.871L44.4115 101.851ZM48.2753 102.543C48.9176 102.641 49.5661 102.733 50.221 102.817L50.3487 101.825C49.702 101.742 49.0615 101.652 48.4272 101.554L48.2753 102.543ZM52.1786 103.046C52.8223 103.113 53.4718 103.173 54.1272 103.226L54.2075 102.229C53.56 102.177 52.9183 102.117 52.2824 102.051L52.1786 103.046ZM56.0856 103.36C56.7364 103.398 57.3927 103.427 58.0544 103.45L58.0883 102.451C57.4343 102.428 56.7857 102.399 56.1426 102.362L56.0856 103.36ZM60.0103 103.494C60.3389 103.498 60.6688 103.5 61 103.5V102.5C60.6726 102.5 60.3464 102.498 60.0216 102.494L60.0103 103.494ZM61 103.5C61.3623 103.5 61.7185 103.492 62.0688 103.478L62.028 102.479C61.6917 102.493 61.3491 102.5 61 102.5V103.5ZM64.0991 103.308C64.8062 103.217 65.486 103.093 66.1393 102.938L65.9082 101.965C65.2903 102.112 64.6449 102.229 63.9708 102.316L64.0991 103.308ZM68.0921 102.353C68.7596 102.109 69.3947 101.827 69.9984 101.509L69.5326 100.624C68.9691 100.921 68.3748 101.185 67.7483 101.414L68.0921 102.353ZM71.7605 100.418C72.3235 100.012 72.8528 99.569 73.35 99.0919L72.6575 98.3704C72.1934 98.8159 71.6999 99.2286 71.1755 99.6069L71.7605 100.418ZM74.7475 97.5576C75.1712 97.0268 75.5653 96.4656 75.9314 95.8763L75.0819 95.3486C74.7354 95.9064 74.3639 96.4352 73.966 96.9338L74.7475 97.5576ZM76.9251 94.0711C77.2209 93.4637 77.4931 92.8329 77.7431 92.1803L76.8093 91.8226C76.569 92.4498 76.3083 93.0538 76.0261 93.6332L76.9251 94.0711ZM78.3974 90.2597C78.5918 89.6154 78.768 88.9534 78.9273 88.275L77.9537 88.0464C77.7989 88.706 77.628 89.3478 77.44 89.9709L78.3974 90.2597ZM79.337 86.2926C79.4554 85.636 79.5602 84.9661 79.652 84.2839L78.6609 84.1505C78.5709 84.8189 78.4685 85.474 78.3529 86.1151L79.337 86.2926ZM79.8835 82.265C79.9468 81.6037 79.9995 80.9323 80.0422 80.2517L79.0442 80.1891C79.0021 80.8594 78.9503 81.5199 78.888 82.1696L79.8835 82.265ZM80.1396 78.2212C80.1621 77.5579 80.1761 76.8867 80.1823 76.2085L79.1823 76.1995C79.1762 76.8699 79.1624 77.5327 79.1402 78.1874L80.1396 78.2212ZM80.1778 74.1799C80.1691 73.5149 80.1537 72.8441 80.1319 72.1678L79.1324 72.2C79.154 72.8702 79.1693 73.5347 79.1778 74.1928L80.1778 74.1799ZM80.0492 70.147C80.0164 69.4808 79.978 68.81 79.9346 68.1352L78.9366 68.1994C78.9798 68.8695 79.0179 69.5353 79.0504 70.1963L80.0492 70.147ZM79.7913 66.1241C79.7394 65.4568 79.683 64.7862 79.6226 64.1128L78.6266 64.2021C78.6867 64.8719 78.7427 65.5385 78.7943 66.2016L79.7913 66.1241ZM79.4322 62.1105C79.3653 61.4429 79.2949 60.7731 79.2213 60.1015L78.2272 60.2105C78.3005 60.8792 78.3706 61.5459 78.4372 62.2102L79.4322 62.1105ZM78.9943 58.1057C78.9158 57.4389 78.8346 56.771 78.7511 56.1022L77.7588 56.2261C77.842 56.8927 77.9229 57.5584 78.0011 58.2226L78.9943 58.1057ZM78.4959 54.109C78.4088 53.4442 78.3198 52.7791 78.2293 52.1141L77.2384 52.2491C77.3288 52.9125 77.4175 53.576 77.5044 54.2389L78.4959 54.109ZM77.9533 50.1202C77.86 49.456 77.7655 48.7924 77.6701 48.1298L76.6803 48.2723C76.7755 48.9339 76.8699 49.5964 76.963 50.2593L77.9533 50.1202ZM77.381 46.1389C77.2836 45.4739 77.1858 44.8104 77.0879 44.1488L76.0986 44.2953C76.1965 44.9564 76.2943 45.6194 76.3916 46.2838L77.381 46.1389ZM76.7931 42.1644C76.6938 41.497 76.5948 40.8323 76.4964 40.1705L75.5073 40.3176C75.6057 40.9795 75.7047 41.6444 75.804 42.3116L76.7931 42.1644ZM76.2038 38.1948C76.1048 37.524 76.007 36.8568 75.9107 36.1938L74.9211 36.3376C75.0175 37.0014 75.1154 37.6693 75.2145 38.3407L76.2038 38.1948ZM75.6267 34.2178C75.5312 33.5456 75.4379 32.8784 75.347 32.2169L74.3563 32.353C74.4474 33.0162 74.541 33.6849 74.6366 34.3583L75.6267 34.2178ZM75.081 30.239C74.9924 29.5649 74.907 28.8974 74.8253 28.2372L73.8328 28.36C73.9149 29.0229 74.0006 29.6929 74.0895 30.3693L75.081 30.239ZM74.5893 26.2582C74.5118 25.5805 74.4389 24.9115 74.3713 24.2521L73.3765 24.3541C73.4446 25.0178 73.5179 25.6906 73.5958 26.3719L74.5893 26.2582ZM74.1823 22.277C74.1218 21.5929 74.0681 20.9206 74.0217 20.2612L73.0242 20.3314C73.071 20.9973 73.1252 21.6755 73.1861 22.365L74.1823 22.277ZM73.904 18.2943C73.8705 17.6035 73.8466 16.9293 73.8332 16.2727L72.8334 16.293C72.847 16.9599 72.8712 17.6436 72.9052 18.3428L73.904 18.2943ZM73.8268 14.2849C73.8372 13.6067 73.8615 12.9515 73.9006 12.3209L72.9025 12.2589C72.8623 12.9068 72.8376 13.5775 72.8269 14.2696L73.8268 14.2849ZM74.0857 10.3277C74.1731 9.64237 74.2833 8.99557 74.4178 8.38935L73.4416 8.17267C73.2995 8.81269 73.1844 9.48992 73.0937 10.2011L74.0857 10.3277ZM74.955 6.53206C75.1915 5.89359 75.4669 5.32552 75.7828 4.82956L74.9394 4.2923C74.5794 4.85747 74.2742 5.49115 74.0173 6.18472L74.955 6.53206ZM76.9861 3.44717C77.2216 3.25403 77.4724 3.0844 77.7394 2.93877L77.2606 2.06088C76.9377 2.23699 76.6351 2.44181 76.3521 2.67386L76.9861 3.44717ZM77.7394 2.93877C78.0117 2.79027 78.2974 2.6573 78.5963 2.53946L78.2296 1.60914C77.8941 1.74139 77.5708 1.89167 77.2606 2.06088L77.7394 2.93877ZM80.4551 2.02666C81.0632 1.91964 81.7091 1.85671 82.3903 1.83564L82.3594 0.836115C81.6366 0.858479 80.9427 0.925483 80.2818 1.04179L80.4551 2.02666ZM84.3615 1.88214C84.9976 1.92834 85.6567 2.00345 86.3368 2.10563L86.4854 1.11673C85.7828 1.01118 85.0982 0.933015 84.4339 0.884764L84.3615 1.88214ZM88.3026 2.46252C88.9388 2.59651 89.5898 2.75024 90.2541 2.92232L90.5048 1.95427C89.827 1.77871 89.1612 1.6214 88.5087 1.48398L88.3026 2.46252ZM92.1906 3.46359C92.8219 3.6522 93.463 3.85499 94.1131 4.07086L94.4283 3.12181C93.7693 2.90302 93.1185 2.69716 92.4769 2.50545L92.1906 3.46359ZM96.0217 4.73216C96.6429 4.95595 97.2709 5.19009 97.9048 5.43367L98.2635 4.5002C97.6235 4.25428 96.9889 4.01767 96.3606 3.79134L96.0217 4.73216ZM99.7796 6.17391C100.398 6.42417 101.02 6.68223 101.647 6.94727L102.036 6.02629C101.405 5.75939 100.778 5.49935 100.155 5.24704L99.7796 6.17391ZM103.506 7.74879C104.118 8.01743 104.733 8.29181 105.351 8.57118L105.763 7.66011C105.142 7.37928 104.524 7.10335 103.908 6.83307L103.506 7.74879ZM107.187 9.41347C107.797 9.6965 108.407 9.9836 109.019 10.2741L109.448 9.37072C108.834 9.07913 108.221 8.79082 107.608 8.50651L107.187 9.41347ZM110.845 11.1495C111.451 11.4426 112.058 11.7384 112.664 12.0361L113.105 11.1385C112.497 10.84 111.889 10.5434 111.281 10.2493L110.845 11.1495ZM114.479 12.9339C115.084 13.2349 115.688 13.5371 116.29 13.8398L116.739 12.9464C116.136 12.6431 115.531 12.3402 114.925 12.0386L114.479 12.9339ZM118.098 14.752C118.703 15.0587 119.306 15.3651 119.906 15.6707L120.36 14.7796C119.759 14.4738 119.156 14.167 118.55 13.86L118.098 14.752ZM121.712 16.5918C122.317 16.9007 122.918 17.2076 123.515 17.5124L123.97 16.6218C123.373 16.3173 122.772 16.01 122.167 15.7012L121.712 16.5918ZM125.321 18.4339C125.931 18.7445 126.535 19.0516 127.134 19.3545L127.585 18.4623C126.988 18.1599 126.384 17.8531 125.775 17.5428L125.321 18.4339ZM128.947 20.2684C129.56 20.5758 130.165 20.8775 130.761 21.1725L131.205 20.2762C130.61 19.982 130.006 19.6812 129.395 19.3745L128.947 20.2684ZM132.58 22.0634C133.202 22.3651 133.813 22.6579 134.413 22.9408L134.839 22.0364C134.244 21.7553 133.635 21.4639 133.016 21.1636L132.58 22.0634ZM136.262 23.7979C136.9 24.0877 137.522 24.3635 138.126 24.6236L138.522 23.7051C137.924 23.4479 137.309 23.1748 136.676 22.8875L136.262 23.7979ZM140.01 25.4051C140.673 25.6684 141.31 25.908 141.919 26.1209L142.249 25.1769C141.656 24.9694 141.032 24.7348 140.38 24.4758L140.01 25.4051Z" fill="#CECECE"/>
</svg>
