<svg width="211" height="192" viewBox="0 0 211 192" fill="none" xmlns="http://www.w3.org/2000/svg">
<path d="M5.63995 14.1523L0.108673 14.4709L2.89133 19.5295L6.12192 15.0284L5.63995 14.1523ZM116.5 46.0002L116.818 45.6141L116.5 46.0002ZM141 184.5L140.694 184.896L141 184.5ZM205.534 127.556L210.649 125.427L206.351 121.573L204.79 126.889L205.534 127.556ZM4.40157 15.9779C4.98883 15.6567 5.5691 15.3403 6.14266 15.0286L5.66522 14.1499C5.09076 14.4621 4.50968 14.779 3.92174 15.1005L4.40157 15.9779ZM7.92219 14.0656C8.50846 13.7498 9.08762 13.4394 9.65999 13.1343L9.18968 12.2518C8.61587 12.5576 8.03538 12.8688 7.44794 13.1853L7.92219 14.0656ZM11.4544 12.1844C12.0452 11.8739 12.6287 11.5696 13.2052 11.2716L12.746 10.3832C12.1673 10.6824 11.5818 10.9877 10.9892 11.2992L11.4544 12.1844ZM15.0076 10.3492C15.6027 10.0479 16.1904 9.75383 16.7711 9.46702L16.3283 8.57041C15.7444 8.85878 15.1537 9.15436 14.5559 9.457L15.0076 10.3492ZM18.5907 8.58157C19.1952 8.2921 19.7921 8.01107 20.382 7.73863L19.9628 6.83077C19.3683 7.1053 18.7671 7.38832 18.1588 7.67967L18.5907 8.58157ZM22.2128 6.91122C22.8293 6.63895 23.4383 6.3767 24.0405 6.12463L23.6544 5.20218C23.0458 5.4569 22.4308 5.72173 21.8088 5.99645L22.2128 6.91122ZM25.882 5.37764C26.5125 5.13037 27.1358 4.89499 27.7528 4.6717L27.4124 3.7314C26.7867 3.95786 26.1551 4.19637 25.5169 4.44667L25.882 5.37764ZM29.6221 4.02608C30.2619 3.81609 30.8954 3.61986 31.5234 3.43762L31.2447 2.47724C30.6051 2.66286 29.9605 2.86253 29.3103 3.07594L29.6221 4.02608ZM33.4422 2.92062C34.0891 2.7601 34.7311 2.61518 35.3691 2.48612L35.1708 1.50597C34.518 1.63803 33.8619 1.78617 33.2014 1.95004L33.4422 2.92062ZM37.3172 2.13986C37.9747 2.03949 38.629 1.9566 39.2814 1.89151L39.1821 0.896447C38.512 0.963315 37.8404 1.0484 37.1663 1.15132L37.3172 2.13986ZM41.2496 1.74917C41.9078 1.71985 42.5653 1.70909 43.2234 1.71723L43.2358 0.717307C42.5586 0.708934 41.882 0.720007 41.2051 0.750157L41.2496 1.74917ZM45.1961 1.79833C45.8476 1.84388 46.5011 1.90816 47.1575 1.9915L47.2835 0.999468C46.6085 0.913763 45.9363 0.847638 45.2658 0.800767L45.1961 1.79833ZM49.1104 2.29422C49.7535 2.41179 50.4007 2.54763 51.0529 2.70206L51.2833 1.72897C50.6147 1.57065 49.9507 1.43126 49.2903 1.31052L49.1104 2.29422ZM52.9564 3.20147C53.5813 3.38114 54.2116 3.57762 54.8482 3.79122L55.1663 2.84315C54.5163 2.62507 53.8721 2.42423 53.2328 2.24041L52.9564 3.20147ZM56.727 4.46415C57.3296 4.69335 57.9383 4.93751 58.5539 5.19685L58.9421 4.27528C58.3161 4.01155 57.6965 3.76302 57.0825 3.52949L56.727 4.46415ZM60.3829 6.0026C60.9724 6.27336 61.5685 6.55761 62.1717 6.85554L62.6145 5.95892C62.0032 5.65701 61.3987 5.36872 60.8004 5.09389L60.3829 6.0026ZM63.9443 7.75935C64.5237 8.06376 65.1098 8.38035 65.7031 8.70926L66.188 7.83465C65.5883 7.50227 64.9957 7.18214 64.4095 6.87412L63.9443 7.75935ZM67.4282 9.68824C67.9968 10.0182 68.5721 10.359 69.1545 10.7109L69.6716 9.85502C69.0844 9.50022 68.504 9.15636 67.9301 8.82333L67.4282 9.68824ZM70.8444 11.7502C71.4016 12.0988 71.9653 12.4571 72.5359 12.8252L73.078 11.9849C72.5037 11.6144 71.936 11.2536 71.3747 10.9025L70.8444 11.7502ZM74.2047 13.9169C74.7502 14.2784 75.3018 14.6486 75.8599 15.0275L76.4216 14.2001C75.8605 13.8192 75.3058 13.447 74.7572 13.0834L74.2047 13.9169ZM77.5227 16.1687C78.0561 16.5386 78.5953 16.9162 79.1405 17.3015L79.7176 16.4848C79.1701 16.0979 78.6285 15.7186 78.0926 15.347L77.5227 16.1687ZM80.7947 18.4807C81.3217 18.8594 81.8542 19.2451 82.3924 19.6379L82.9818 18.83C82.4417 18.436 81.9073 18.0489 81.3784 17.6687L80.7947 18.4807ZM84.0065 20.8236C84.542 21.2196 85.0831 21.6223 85.6301 22.0317L86.2293 21.2312C85.6809 20.8206 85.1382 20.4168 84.6011 20.0195L84.0065 20.8236ZM87.2042 23.2166C87.7343 23.6176 88.2697 24.0248 88.8106 24.4381L89.4178 23.6436C88.8756 23.2293 88.339 22.8212 87.8076 22.4191L87.2042 23.2166ZM90.4025 25.6601C90.9191 26.0584 91.4407 26.4621 91.9672 26.8712L92.5808 26.0816C92.0533 25.6717 91.5307 25.2672 91.0131 24.8682L90.4025 25.6601ZM93.5622 28.1151C94.0831 28.5227 94.6088 28.9355 95.1395 29.3536L95.7583 28.568C95.2268 28.1494 94.7003 27.7359 94.1785 27.3276L93.5622 28.1151ZM96.6916 30.5798C97.2137 30.9934 97.7405 31.4119 98.2721 31.8353L98.8951 31.0531C98.3629 30.6291 97.8354 30.2101 97.3126 29.7959L96.6916 30.5798ZM99.8516 33.0963C100.36 33.5028 100.872 33.9137 101.389 34.3289L102.015 33.5494C101.498 33.1338 100.985 32.7225 100.476 32.3155L99.8516 33.0963ZM102.952 35.5878C103.478 36.0118 104.008 36.4402 104.542 36.8731L105.172 36.0958C104.636 35.6627 104.106 35.2339 103.58 34.8095L102.952 35.5878ZM106.07 38.1116C106.58 38.5263 107.095 38.9449 107.614 39.3675L108.246 38.592C107.726 38.1692 107.211 37.7503 106.7 37.3353L106.07 38.1116ZM109.183 40.647C109.701 41.0693 110.222 41.4954 110.747 41.9253L111.381 41.1513C110.855 40.7212 110.333 40.2949 109.816 39.8723L109.183 40.647ZM112.271 43.1732C112.783 43.5928 113.299 44.0158 113.818 44.4424L114.453 43.6696C113.933 43.2428 113.417 42.8196 112.905 42.3999L112.271 43.1732ZM115.388 45.7329C115.652 45.9498 115.917 46.1676 116.182 46.3862L116.818 45.6141C116.552 45.3954 116.287 45.1776 116.023 44.9606L115.388 45.7329ZM116.182 46.3862C116.445 46.6023 116.704 46.8188 116.96 47.0359L117.607 46.2732C117.347 46.0529 117.084 45.8333 116.818 45.6141L116.182 46.3862ZM118.457 48.3443C118.944 48.7824 119.417 49.2225 119.879 49.6646L120.571 48.9425C120.102 48.4933 119.62 48.0462 119.127 47.6013L118.457 48.3443ZM121.271 51.0423C121.738 51.5203 122.192 52.0003 122.631 52.4825L123.37 51.8086C122.922 51.3178 122.461 50.8293 121.986 50.3432L121.271 51.0423ZM123.91 53.9352C124.34 54.4412 124.756 54.9494 125.157 55.4598L125.943 54.8414C125.534 54.3212 125.11 53.8033 124.673 53.2878L123.91 53.9352ZM126.343 57.0281C126.724 57.5531 127.091 58.0803 127.444 58.6096L128.276 58.0545C127.915 57.5143 127.541 56.9763 127.152 56.4407L126.343 57.0281ZM128.511 60.2826C128.852 60.8426 129.178 61.4047 129.49 61.9689L130.365 61.485C130.047 60.9085 129.713 60.3344 129.365 59.7626L128.511 60.2826ZM130.399 63.698C130.694 64.2876 130.973 64.8794 131.238 65.4733L132.151 65.0657C131.88 64.4588 131.595 63.854 131.294 63.2516L130.399 63.698ZM131.992 67.263C132.235 67.8759 132.463 68.4909 132.678 69.108L133.622 68.7796C133.403 68.1492 133.17 67.5208 132.921 66.8946L131.992 67.263ZM133.28 70.9656C133.469 71.5923 133.645 72.221 133.807 72.8517L134.775 72.6025C134.61 71.9588 134.431 71.3168 134.238 70.6769L133.28 70.9656ZM134.257 74.7584C134.395 75.3967 134.519 76.037 134.632 76.679L135.617 76.5062C135.502 75.8518 135.375 75.199 135.235 74.5479L134.257 74.7584ZM134.935 78.6163C135.024 79.2638 135.102 79.9131 135.168 80.5639L136.163 80.4624C136.095 79.8002 136.016 79.1394 135.926 78.48L134.935 78.6163ZM135.334 82.5169C135.379 83.1694 135.413 83.8234 135.437 84.4787L136.437 84.4417C136.412 83.7762 136.377 83.1118 136.332 82.4486L135.334 82.5169ZM135.481 86.4408C135.486 87.0946 135.481 87.7496 135.468 88.4057L136.468 88.4257C136.481 87.7607 136.486 87.0965 136.481 86.4333L135.481 86.4408ZM135.403 90.3729C135.374 91.0255 135.336 91.6791 135.29 92.3336L136.288 92.4028C136.334 91.7407 136.372 91.0792 136.402 90.4185L135.403 90.3729ZM135.132 94.2998C135.073 94.9507 135.006 95.6025 134.933 96.2549L135.927 96.3658C136.001 95.707 136.068 95.0486 136.128 94.3908L135.132 94.2998ZM134.697 98.2119C134.612 98.8623 134.522 99.5132 134.426 100.165L135.415 100.31C135.512 99.6534 135.603 98.997 135.688 98.3409L134.697 98.2119ZM134.125 102.112C134.019 102.761 133.909 103.41 133.795 104.06L134.78 104.233C134.895 103.58 135.006 102.926 135.112 102.272L134.125 102.112ZM133.442 105.999C133.32 106.645 133.195 107.291 133.066 107.938L134.047 108.133C134.176 107.483 134.302 106.833 134.424 106.184L133.442 105.999ZM132.672 109.873C132.538 110.517 132.402 111.162 132.263 111.806L133.24 112.016C133.38 111.37 133.517 110.724 133.651 110.077L132.672 109.873ZM131.84 113.737C131.697 114.38 131.553 115.024 131.407 115.666L132.382 115.887C132.528 115.243 132.673 114.599 132.816 113.953L131.84 113.737ZM130.967 117.593C130.819 118.237 130.67 118.88 130.521 119.523L131.495 119.749C131.644 119.106 131.793 118.462 131.941 117.818L130.967 117.593ZM130.073 121.45C129.924 122.094 129.775 122.736 129.626 123.378L130.6 123.603C130.749 122.962 130.898 122.32 131.047 121.677L130.073 121.45ZM129.182 125.311C129.034 125.954 128.889 126.597 128.745 127.238L129.72 127.457C129.864 126.817 130.01 126.176 130.156 125.534L129.182 125.311ZM128.315 129.179C128.173 129.826 128.034 130.471 127.898 131.115L128.877 131.322C129.012 130.68 129.151 130.037 129.292 129.393L128.315 129.179ZM127.497 133.059C127.365 133.71 127.237 134.36 127.113 135.008L128.095 135.196C128.218 134.551 128.346 133.905 128.477 133.257L127.497 133.059ZM126.753 136.954C126.636 137.611 126.524 138.267 126.417 138.92L127.404 139.082C127.51 138.433 127.622 137.782 127.738 137.13L126.753 136.954ZM126.114 140.876C126.017 141.537 125.926 142.197 125.842 142.854L126.834 142.98C126.917 142.33 127.007 141.676 127.103 141.021L126.114 140.876ZM125.611 144.826C125.541 145.49 125.478 146.151 125.423 146.81L126.42 146.892C126.474 146.242 126.536 145.588 126.605 144.932L125.611 144.826ZM125.285 148.798C125.248 149.464 125.22 150.127 125.203 150.787L126.202 150.813C126.22 150.163 126.247 149.51 126.284 148.854L125.285 148.798ZM125.181 152.786C125.185 153.452 125.199 154.115 125.226 154.775L126.225 154.734C126.199 154.087 126.184 153.435 126.181 152.78L125.181 152.786ZM125.346 156.776C125.399 157.44 125.465 158.101 125.545 158.758L126.538 158.637C126.459 157.994 126.395 157.347 126.343 156.696L125.346 156.776ZM125.832 160.744C125.942 161.402 126.068 162.056 126.21 162.706L127.187 162.493C127.049 161.859 126.926 161.221 126.818 160.578L125.832 160.744ZM126.686 164.654C126.861 165.298 127.053 165.939 127.263 166.575L128.213 166.262C128.008 165.643 127.821 165.019 127.651 164.391L126.686 164.654ZM127.942 168.456C128.186 169.078 128.449 169.696 128.73 170.308L129.639 169.891C129.365 169.296 129.11 168.696 128.873 168.091L127.942 168.456ZM129.615 172.098C129.927 172.686 130.258 173.27 130.609 173.849L131.464 173.331C131.123 172.768 130.802 172.201 130.498 171.629L129.615 172.098ZM131.69 175.527C132.064 176.073 132.457 176.615 132.869 177.151L133.662 176.542C133.261 176.02 132.879 175.493 132.515 174.962L131.69 175.527ZM134.134 178.709C134.559 179.207 135.003 179.7 135.464 180.188L136.191 179.501C135.74 179.025 135.308 178.544 134.893 178.059L134.134 178.709ZM136.9 181.634C137.364 182.079 137.845 182.521 138.342 182.958L139.002 182.207C138.516 181.779 138.046 181.348 137.592 180.912L136.9 181.634ZM139.885 184.256C140.15 184.471 140.42 184.684 140.694 184.896L141.306 184.105C141.037 183.897 140.773 183.688 140.512 183.478L139.885 184.256ZM140.694 184.896C140.97 185.109 141.245 185.317 141.519 185.52L142.114 184.716C141.846 184.518 141.576 184.314 141.306 184.105L140.694 184.896ZM143.147 186.671C143.706 187.048 144.261 187.402 144.81 187.734L145.327 186.878C144.792 186.555 144.252 186.21 143.706 185.842L143.147 186.671ZM146.556 188.722C147.157 189.04 147.752 189.33 148.342 189.595L148.751 188.683C148.182 188.427 147.605 188.146 147.023 187.838L146.556 188.722ZM150.192 190.347C150.839 190.582 151.479 190.785 152.111 190.957L152.374 189.992C151.769 189.827 151.155 189.633 150.534 189.407L150.192 190.347ZM154.048 191.393C154.728 191.514 155.399 191.598 156.063 191.648L156.138 190.651C155.508 190.604 154.87 190.523 154.223 190.409L154.048 191.393ZM158.076 191.694C158.753 191.673 159.421 191.616 160.08 191.524L159.942 190.534C159.318 190.62 158.686 190.674 158.045 190.694L158.076 191.694ZM162.063 191.138C162.713 190.975 163.354 190.778 163.986 190.548L163.646 189.608C163.045 189.826 162.436 190.013 161.82 190.168L162.063 191.138ZM165.844 189.772C166.444 189.487 167.036 189.174 167.62 188.833L167.116 187.969C166.556 188.296 165.989 188.596 165.415 188.868L165.844 189.772ZM169.303 187.761C169.847 187.385 170.383 186.986 170.912 186.566L170.29 185.783C169.777 186.19 169.259 186.576 168.735 186.938L169.303 187.761ZM172.436 185.277C172.923 184.841 173.404 184.386 173.879 183.915L173.175 183.205C172.711 183.665 172.243 184.108 171.769 184.532L172.436 185.277ZM175.266 182.473C175.707 181.993 176.143 181.499 176.574 180.992L175.812 180.345C175.389 180.842 174.961 181.326 174.53 181.796L175.266 182.473ZM177.833 179.456C178.239 178.942 178.641 178.417 179.039 177.882L178.236 177.286C177.844 177.813 177.448 178.33 177.049 178.835L177.833 179.456ZM180.195 176.28C180.573 175.742 180.946 175.195 181.316 174.639L180.484 174.085C180.118 174.634 179.749 175.174 179.377 175.705L180.195 176.28ZM182.39 172.989C182.743 172.434 183.093 171.872 183.439 171.303L182.585 170.783C182.242 171.346 181.895 171.903 181.546 172.453L182.39 172.989ZM184.447 169.616C184.78 169.049 185.11 168.477 185.436 167.9L184.566 167.407C184.242 167.98 183.915 168.548 183.585 169.11L184.447 169.616ZM186.394 166.181C186.71 165.605 187.024 165.025 187.335 164.443L186.452 163.972C186.143 164.551 185.832 165.128 185.518 165.7L186.394 166.181ZM188.252 162.701C188.555 162.118 188.856 161.533 189.154 160.946L188.263 160.493C187.966 161.077 187.666 161.659 187.365 162.239L188.252 162.701ZM190.04 159.187C190.333 158.599 190.624 158.009 190.913 157.42L190.015 156.98C189.727 157.568 189.437 158.155 189.145 158.74L190.04 159.187ZM191.774 155.649C192.06 155.057 192.344 154.465 192.626 153.874L191.724 153.443C191.442 154.033 191.159 154.623 190.874 155.214L191.774 155.649ZM193.471 152.095C193.753 151.5 194.032 150.907 194.31 150.316L193.405 149.89C193.127 150.481 192.848 151.074 192.567 151.668L193.471 152.095ZM195.146 148.534C195.426 147.937 195.704 147.343 195.981 146.753L195.075 146.328C194.798 146.919 194.52 147.513 194.241 148.11L195.146 148.534ZM196.815 144.974C197.096 144.376 197.376 143.782 197.655 143.193L196.751 142.765C196.472 143.355 196.191 143.95 195.91 144.549L196.815 144.974ZM198.495 141.426C198.782 140.826 199.067 140.233 199.352 139.648L198.452 139.211C198.167 139.798 197.88 140.393 197.593 140.994L198.495 141.426ZM200.208 137.9C200.505 137.301 200.8 136.711 201.095 136.132L200.203 135.679C199.907 136.261 199.61 136.854 199.312 137.456L200.208 137.9ZM201.992 134.394C202.301 133.807 202.608 133.233 202.914 132.673L202.037 132.193C201.728 132.758 201.418 133.337 201.107 133.929L201.992 134.394ZM203.878 130.956C204.21 130.38 204.541 129.822 204.871 129.285L204.019 128.761C203.683 129.308 203.347 129.873 203.011 130.457L203.878 130.956ZM205.913 127.653C206.289 127.089 206.664 126.555 207.038 126.051L206.235 125.455C205.85 125.974 205.465 126.522 205.081 127.098L205.913 127.653Z" fill="#CECECE"/>
</svg>
