<svg width="291" height="178" viewBox="0 0 291 178" fill="none" xmlns="http://www.w3.org/2000/svg">
<rect x="0.5" y="30.5" width="290" height="147" rx="9.5" stroke="white" stroke-opacity="0.3" stroke-dasharray="2 2"/>
<rect x="24.5" y="0.5" width="59" height="59" rx="9.5" stroke="white" stroke-opacity="0.3" stroke-dasharray="2 2"/>
<path d="M41.1973 111.142H36.4365L36.4111 108.222H40.2705C40.9645 108.222 41.5189 108.146 41.9336 107.993C42.3483 107.832 42.6488 107.6 42.835 107.295C43.0296 106.99 43.127 106.609 43.127 106.152C43.127 105.628 43.0296 105.204 42.835 104.883C42.6403 104.561 42.3314 104.328 41.9082 104.185C41.4935 104.032 40.9561 103.956 40.2959 103.956H38.1123V119H33.6562V100.516H40.2959C41.4385 100.516 42.4583 100.621 43.3555 100.833C44.2526 101.036 45.0143 101.349 45.6406 101.772C46.2754 102.196 46.7578 102.729 47.0879 103.372C47.418 104.007 47.583 104.756 47.583 105.619C47.583 106.372 47.4222 107.079 47.1006 107.739C46.779 108.399 46.2415 108.937 45.4883 109.352C44.7435 109.758 43.7236 109.969 42.4287 109.986L41.1973 111.142ZM41.0195 119H35.3574L36.8809 115.572H41.0195C41.6289 115.572 42.1156 115.479 42.4795 115.293C42.8519 115.098 43.1185 114.844 43.2793 114.531C43.4486 114.21 43.5332 113.854 43.5332 113.465C43.5332 112.991 43.4528 112.58 43.292 112.233C43.1396 111.886 42.8942 111.62 42.5557 111.434C42.2171 111.239 41.7643 111.142 41.1973 111.142H37.4521L37.4775 108.222H41.959L43 109.39C44.2357 109.339 45.2132 109.512 45.9326 109.91C46.6605 110.308 47.181 110.833 47.4941 111.484C47.8073 112.136 47.9639 112.817 47.9639 113.528C47.9639 114.739 47.7015 115.75 47.1768 116.562C46.6605 117.375 45.8861 117.984 44.8535 118.391C43.821 118.797 42.543 119 41.0195 119ZM63.1602 115.572V119H53.3086V115.572H63.1602ZM54.8955 100.516V119H50.4395V100.516H54.8955ZM61.8906 107.854V111.167H53.3086V107.854H61.8906ZM63.1982 100.516V103.956H53.3086V100.516H63.1982ZM77.4678 100.516V103.956H69.4316V119H64.9883V100.516H77.4678ZM67.7812 106.876H71.7549C73.2529 106.876 74.5563 107.126 75.665 107.625C76.7738 108.124 77.6286 108.823 78.2295 109.72C78.8389 110.617 79.1436 111.666 79.1436 112.868C79.1436 113.774 78.9701 114.603 78.623 115.356C78.276 116.101 77.7767 116.749 77.125 117.299C76.4818 117.84 75.7074 118.259 74.8018 118.556C73.8962 118.852 72.8805 119 71.7549 119H65.001V100.516H69.4697V115.572H71.7549C72.3896 115.572 72.9229 115.45 73.3545 115.204C73.7946 114.959 74.1289 114.633 74.3574 114.227C74.5859 113.812 74.7002 113.351 74.7002 112.843C74.7002 112.352 74.5859 111.916 74.3574 111.535C74.1289 111.154 73.7946 110.854 73.3545 110.634C72.9229 110.414 72.3896 110.304 71.7549 110.304H67.7812V106.876ZM89.3887 109.377V112.69H81.7588V109.377H89.3887ZM101.894 100.516V119H97.4375V100.516H101.894ZM107.454 100.516V103.956H92.0039V100.516H107.454ZM122.066 115.572V119H112.215V115.572H122.066ZM113.802 100.516V119H109.346V100.516H113.802ZM120.797 107.854V111.167H112.215V107.854H120.797ZM122.104 100.516V103.956H112.215V100.516H122.104ZM127.767 100.516L130.788 106.66L133.81 100.516H138.888L133.733 109.682L139.027 119H133.898L130.788 112.741L127.678 119H122.536L127.843 109.682L122.676 100.516H127.767ZM152.954 107.854V111.281H143.471V107.854H152.954ZM144.956 100.516V119H140.5V100.516H144.956ZM155.95 100.516V119H151.507V100.516H155.95ZM174.422 109.39V110.139C174.422 111.552 174.223 112.822 173.825 113.947C173.436 115.064 172.882 116.021 172.162 116.816C171.443 117.604 170.592 118.209 169.61 118.632C168.629 119.047 167.545 119.254 166.36 119.254C165.167 119.254 164.075 119.047 163.085 118.632C162.103 118.209 161.248 117.604 160.521 116.816C159.801 116.021 159.243 115.064 158.845 113.947C158.455 112.822 158.261 111.552 158.261 110.139V109.39C158.261 107.976 158.455 106.707 158.845 105.581C159.243 104.455 159.797 103.499 160.508 102.712C161.227 101.916 162.078 101.311 163.06 100.896C164.05 100.473 165.142 100.262 166.335 100.262C167.52 100.262 168.603 100.473 169.585 100.896C170.575 101.311 171.43 101.916 172.149 102.712C172.869 103.499 173.427 104.455 173.825 105.581C174.223 106.707 174.422 107.976 174.422 109.39ZM169.902 110.139V109.364C169.902 108.45 169.822 107.646 169.661 106.952C169.509 106.25 169.28 105.661 168.976 105.188C168.671 104.714 168.294 104.358 167.846 104.121C167.406 103.876 166.902 103.753 166.335 103.753C165.743 103.753 165.226 103.876 164.786 104.121C164.346 104.358 163.978 104.714 163.682 105.188C163.385 105.661 163.161 106.25 163.009 106.952C162.865 107.646 162.793 108.45 162.793 109.364V110.139C162.793 111.044 162.865 111.848 163.009 112.551C163.161 113.245 163.385 113.833 163.682 114.315C163.986 114.798 164.359 115.162 164.799 115.407C165.247 115.653 165.768 115.775 166.36 115.775C166.927 115.775 167.431 115.653 167.871 115.407C168.311 115.162 168.679 114.798 168.976 114.315C169.28 113.833 169.509 113.245 169.661 112.551C169.822 111.848 169.902 111.044 169.902 110.139ZM188.869 100.516V103.956H179.322V100.516H188.869ZM191.878 100.516V119H187.422V100.516H191.878ZM179.018 100.516H183.448L182.966 109.91C182.89 111.332 182.746 112.559 182.534 113.592C182.323 114.616 182.039 115.479 181.684 116.182C181.328 116.876 180.901 117.43 180.401 117.845C179.902 118.259 179.322 118.556 178.662 118.733C178.01 118.911 177.278 119 176.466 119H175.387V115.572L175.869 115.521C176.258 115.479 176.601 115.373 176.897 115.204C177.194 115.026 177.448 114.764 177.659 114.417C177.879 114.07 178.061 113.626 178.205 113.084C178.349 112.542 178.463 111.886 178.548 111.116C178.641 110.338 178.704 109.428 178.738 108.387L179.018 100.516ZM210.299 109.39V110.139C210.299 111.552 210.1 112.822 209.702 113.947C209.313 115.064 208.758 116.021 208.039 116.816C207.32 117.604 206.469 118.209 205.487 118.632C204.506 119.047 203.422 119.254 202.237 119.254C201.044 119.254 199.952 119.047 198.962 118.632C197.98 118.209 197.125 117.604 196.397 116.816C195.678 116.021 195.119 115.064 194.722 113.947C194.332 112.822 194.138 111.552 194.138 110.139V109.39C194.138 107.976 194.332 106.707 194.722 105.581C195.119 104.455 195.674 103.499 196.385 102.712C197.104 101.916 197.955 101.311 198.937 100.896C199.927 100.473 201.019 100.262 202.212 100.262C203.397 100.262 204.48 100.473 205.462 100.896C206.452 101.311 207.307 101.916 208.026 102.712C208.746 103.499 209.304 104.455 209.702 105.581C210.1 106.707 210.299 107.976 210.299 109.39ZM205.779 110.139V109.364C205.779 108.45 205.699 107.646 205.538 106.952C205.386 106.25 205.157 105.661 204.853 105.188C204.548 104.714 204.171 104.358 203.723 104.121C203.283 103.876 202.779 103.753 202.212 103.753C201.619 103.753 201.103 103.876 200.663 104.121C200.223 104.358 199.855 104.714 199.559 105.188C199.262 105.661 199.038 106.25 198.886 106.952C198.742 107.646 198.67 108.45 198.67 109.364V110.139C198.67 111.044 198.742 111.848 198.886 112.551C199.038 113.245 199.262 113.833 199.559 114.315C199.863 114.798 200.236 115.162 200.676 115.407C201.124 115.653 201.645 115.775 202.237 115.775C202.804 115.775 203.308 115.653 203.748 115.407C204.188 115.162 204.556 114.798 204.853 114.315C205.157 113.833 205.386 113.245 205.538 112.551C205.699 111.848 205.779 111.044 205.779 110.139ZM225.063 100.516V103.956H217.027V119H212.584V100.516H225.063ZM231.31 112.183L237.949 100.516H242.405V119H237.949V107.346L231.31 119H226.854V100.516H231.31V112.183ZM249.337 112.183L255.977 100.516H260.433V119H255.977V107.346L249.337 119H244.881V100.516H249.337V112.183Z" fill="white" fill-opacity="0.74"/>
<path d="M35.9902 85.6035V93H35.1699V85.6035H35.9902ZM40.8574 85.6035L37.4668 89.6094H35.7031L35.6143 88.8779H37.1182L39.8252 85.6035H40.8574ZM40.1191 93L37.0361 89.5L37.5557 88.8711L41.1992 93H40.1191ZM44.5762 92.2617L46.8799 85.6035H47.7617L44.6309 94.1895C44.5671 94.3581 44.485 94.5449 44.3848 94.75C44.2891 94.9551 44.1615 95.151 44.002 95.3379C43.847 95.5293 43.651 95.6842 43.4141 95.8027C43.1816 95.9258 42.8968 95.9873 42.5596 95.9873C42.473 95.9873 42.3613 95.9759 42.2246 95.9531C42.0924 95.9349 41.9967 95.9167 41.9375 95.8984L41.9307 95.208C41.9808 95.2217 42.0537 95.2331 42.1494 95.2422C42.2451 95.2513 42.3112 95.2559 42.3477 95.2559C42.6439 95.2559 42.8923 95.2057 43.0928 95.1055C43.2979 95.0052 43.4688 94.8548 43.6055 94.6543C43.7422 94.4583 43.863 94.2122 43.9678 93.916L44.5762 92.2617ZM42.4229 85.6035L44.7812 91.9541L45 92.8086L44.4053 93.1436L41.5342 85.6035H42.4229ZM49.8467 87.0254V95.8438H49.0264V85.6035H49.792L49.8467 87.0254ZM54.9873 89.2334V89.377C54.9873 89.9284 54.9235 90.4342 54.7959 90.8945C54.6683 91.3548 54.4837 91.7536 54.2422 92.0908C54.0052 92.4235 53.7113 92.681 53.3604 92.8633C53.0094 93.0456 52.6107 93.1367 52.1641 93.1367C51.722 93.1367 51.3278 93.0684 50.9814 92.9316C50.6351 92.7949 50.3366 92.6012 50.0859 92.3506C49.8398 92.0954 49.6416 91.7992 49.4912 91.4619C49.3454 91.1201 49.2428 90.7464 49.1836 90.3408V88.4473C49.252 88.0007 49.3636 87.5951 49.5186 87.2305C49.6735 86.8659 49.8717 86.5514 50.1133 86.2871C50.3594 86.0228 50.651 85.82 50.9883 85.6787C51.3255 85.5374 51.7106 85.4668 52.1436 85.4668C52.5947 85.4668 52.9958 85.5557 53.3467 85.7334C53.7021 85.9066 54.0007 86.1595 54.2422 86.4922C54.4883 86.8203 54.6729 87.2168 54.7959 87.6816C54.9235 88.1419 54.9873 88.6592 54.9873 89.2334ZM54.167 89.377V89.2334C54.167 88.8005 54.1214 88.3994 54.0303 88.0303C53.9437 87.6611 53.8092 87.3398 53.627 87.0664C53.4492 86.7884 53.2214 86.5719 52.9434 86.417C52.6699 86.262 52.3441 86.1846 51.9658 86.1846C51.5739 86.1846 51.2389 86.2507 50.9609 86.3828C50.6875 86.5104 50.4596 86.6813 50.2773 86.8955C50.0951 87.1051 49.9515 87.3353 49.8467 87.5859C49.7419 87.8366 49.6644 88.0827 49.6143 88.3242V90.5049C49.7008 90.8512 49.8398 91.1725 50.0312 91.4688C50.2227 91.7604 50.4779 91.9951 50.7969 92.1729C51.1204 92.346 51.5146 92.4326 51.9795 92.4326C52.3532 92.4326 52.6768 92.3551 52.9502 92.2002C53.2236 92.0452 53.4492 91.8288 53.627 91.5508C53.8092 91.2728 53.9437 90.9492 54.0303 90.5801C54.1214 90.2109 54.167 89.8099 54.167 89.377ZM59.5332 92.4326C59.8796 92.4326 60.2031 92.3688 60.5039 92.2412C60.8092 92.109 61.0599 91.9154 61.2559 91.6602C61.4564 91.4004 61.5703 91.0837 61.5977 90.71H62.377C62.3542 91.1794 62.2106 91.5986 61.9463 91.9678C61.6865 92.3324 61.3447 92.6195 60.9209 92.8291C60.5016 93.0342 60.0391 93.1367 59.5332 93.1367C59.0182 93.1367 58.5625 93.0433 58.166 92.8564C57.7741 92.6696 57.446 92.4098 57.1816 92.0771C56.9173 91.7399 56.7168 91.348 56.5801 90.9014C56.4479 90.4502 56.3818 89.9648 56.3818 89.4453V89.1582C56.3818 88.6387 56.4479 88.1556 56.5801 87.709C56.7168 87.2578 56.9173 86.8659 57.1816 86.5332C57.446 86.196 57.7741 85.9339 58.166 85.7471C58.5579 85.5602 59.0114 85.4668 59.5264 85.4668C60.055 85.4668 60.529 85.5739 60.9482 85.7881C61.3721 86.0023 61.7093 86.3053 61.96 86.6973C62.2152 87.0892 62.3542 87.554 62.377 88.0918H61.5977C61.5749 87.6953 61.4701 87.3535 61.2832 87.0664C61.0964 86.7793 60.8503 86.5583 60.5449 86.4033C60.2396 86.2484 59.9001 86.1709 59.5264 86.1709C59.1071 86.1709 58.7493 86.2529 58.4531 86.417C58.1569 86.5765 57.9154 86.7975 57.7285 87.0801C57.5462 87.3581 57.4118 87.6771 57.3252 88.0371C57.2386 88.3926 57.1953 88.7663 57.1953 89.1582V89.4453C57.1953 89.8418 57.2363 90.2201 57.3184 90.5801C57.4049 90.9355 57.5394 91.2523 57.7217 91.5303C57.9085 91.8083 58.1501 92.0293 58.4463 92.1934C58.7471 92.3529 59.1094 92.4326 59.5332 92.4326Z" fill="#BCBCBC"/>
<path d="M74.25 28.2675L65.5 28.25C64.5375 28.25 63.75 29.0375 63.75 30V45.75C63.75 46.7125 64.5375 47.5 65.5 47.5H74.25C75.2125 47.5 76 46.7125 76 45.75V30C76 29.0375 75.2125 28.2675 74.25 28.2675ZM74.25 44H65.5V31.75H74.25V44ZM69 12.5H37.5C35.5575 12.5 34 14.0575 34 16V37C34 38.925 35.5575 40.5 37.5 40.5H49.75V44H46.25V47.5H60.25V44H56.75V40.5H60.25V37H37.5V16H69V24.75H72.5V16C72.5 14.0575 70.925 12.5 69 12.5ZM54.9475 24.75L53.25 19.5L51.5525 24.75H46.25L50.5725 27.83L48.9275 32.9225L53.25 29.7725L57.5725 32.9225L55.9275 27.83L60.25 24.75H54.9475Z" fill="white" fill-opacity="0.78"/>
</svg>
