<svg width="293" height="171" viewBox="0 0 293 171" fill="none" xmlns="http://www.w3.org/2000/svg">
<path d="M5.9409 2.58487L0.759319 0.623303L1.24068 6.3767L6.02428 3.58139L5.9409 2.58487ZM90 47L90.462 46.8088L90 47ZM287.507 4.06753L292.539 6.38649L292.461 0.613516L287.494 3.06762L287.507 4.06753ZM3.9903 3.76834C4.63927 3.72332 5.29644 3.68148 5.96129 3.64328L5.90392 2.64492C5.23501 2.68336 4.57389 2.72545 3.9211 2.77074L3.9903 3.76834ZM7.92765 3.54228C8.57916 3.51284 9.23724 3.48714 9.90143 3.46558L9.86899 2.46611C9.20045 2.48781 8.53813 2.51367 7.88251 2.5433L7.92765 3.54228ZM11.8814 3.41429C12.5319 3.40176 13.1876 3.39341 13.8482 3.38962L13.8424 2.38963C13.1773 2.39346 12.517 2.40186 11.8621 2.41448L11.8814 3.41429ZM15.8212 3.39204C16.4765 3.39746 17.136 3.40758 17.7994 3.42271L17.8222 2.42297C17.1539 2.40772 16.4895 2.39754 15.8294 2.39207L15.8212 3.39204ZM19.7666 3.4822C20.4203 3.50689 21.0772 3.53665 21.7371 3.5718L21.7902 2.57321C21.1251 2.53779 20.4631 2.50779 19.8043 2.48292L19.7666 3.4822ZM23.7103 3.69268C24.3618 3.73786 25.0157 3.7885 25.6718 3.84488L25.7574 2.84855C25.0958 2.79169 24.4364 2.74063 23.7795 2.69507L23.7103 3.69268ZM27.6356 4.03047C28.2876 4.09774 28.9413 4.1709 29.5964 4.25021L29.7166 3.25746C29.0555 3.17742 28.396 3.10362 27.7383 3.03575L27.6356 4.03047ZM31.5486 4.50455C32.198 4.59522 32.8485 4.69217 33.4996 4.79566L33.6566 3.80805C32.9991 3.70356 32.3424 3.60568 31.6868 3.51416L31.5486 4.50455ZM35.4417 5.12363C36.0865 5.23903 36.7316 5.36108 37.3769 5.49003L37.5729 4.50942C36.9209 4.37913 36.2691 4.25583 35.6179 4.13927L35.4417 5.12363ZM39.3068 5.89658C39.9457 6.03817 40.5843 6.18678 41.2224 6.34267L41.4597 5.37123C40.8145 5.21362 40.1689 5.06338 39.5232 4.92027L39.3068 5.89658ZM43.1307 6.83123C43.7635 7.0008 44.3955 7.17779 45.0264 7.36245L45.3073 6.40271C44.6689 6.21587 44.0296 6.03682 43.3895 5.86531L43.1307 6.83123ZM46.908 7.93724C47.5327 8.13621 48.156 8.343 48.7776 8.55784L49.1043 7.61268C48.4748 7.39515 47.8438 7.18581 47.2115 6.98441L46.908 7.93724ZM50.6272 9.22292C51.2405 9.45224 51.852 9.68973 52.4613 9.93561L52.8355 9.00828C52.2181 8.75913 51.5987 8.51853 50.9774 8.28625L50.6272 9.22292ZM54.2755 10.6957C54.8752 10.9564 55.4725 11.2256 56.0671 11.5035L56.4905 10.5975C55.8876 10.3158 55.282 10.0429 54.6741 9.77861L54.2755 10.6957ZM57.8391 12.3618C58.4226 12.6546 59.0032 12.9561 59.5807 13.2667L60.0544 12.386C59.4684 12.0709 58.8794 11.7649 58.2875 11.468L57.8391 12.3618ZM61.2991 14.2232C61.8652 14.5491 62.4279 14.8841 62.987 15.2284L63.5113 14.3769C62.9438 14.0274 62.3726 13.6874 61.7981 13.3566L61.2991 14.2232ZM64.6437 16.2832C65.1899 16.6426 65.7322 17.0112 66.2706 17.3895L66.8454 16.5712C66.2987 16.1871 65.7479 15.8127 65.1934 15.4478L64.6437 16.2832ZM67.8576 18.5411C68.3809 18.9332 68.9 19.3349 69.4147 19.7462L70.039 18.965C69.5161 18.5472 68.9888 18.1392 68.4573 17.7409L67.8576 18.5411ZM70.9261 20.9931C71.4231 21.4162 71.9155 21.8488 72.4033 22.2912L73.0751 21.5505C72.5796 21.1011 72.0793 20.6615 71.5744 20.2317L70.9261 20.9931ZM73.8361 23.6322C74.3046 24.0846 74.7684 24.5466 75.2273 25.0183L75.944 24.321C75.4779 23.8418 75.0067 23.3725 74.5307 22.9128L73.8361 23.6322ZM76.576 26.4486C77.0145 26.9283 77.4481 27.4174 77.8766 27.9162L78.6351 27.2646C78.1999 26.758 77.7595 26.2612 77.3141 25.7739L76.576 26.4486ZM79.137 29.4298C79.5444 29.9344 79.9468 30.4484 80.344 30.9718L81.1406 30.3673C80.7374 29.8359 80.3288 29.3141 79.9152 28.8016L79.137 29.4298ZM81.5131 32.5612C81.8889 33.0884 82.2597 33.6247 82.6253 34.1702L83.456 33.6136C83.0851 33.06 82.7088 32.5157 82.3273 31.9807L81.5131 32.5612ZM83.7011 35.8269C84.0456 36.3744 84.385 36.9307 84.7192 37.496L85.58 36.9871C85.2412 36.4139 84.897 35.8497 84.5475 35.2943L83.7011 35.8269ZM85.7012 39.2108C86.015 39.7765 86.3237 40.3507 86.6272 40.9337L87.5142 40.472C87.2066 39.8812 86.8938 39.2992 86.5757 38.7257L85.7012 39.2108ZM87.5161 42.6971C87.8002 43.2794 88.0794 43.87 88.3533 44.4691L89.2627 44.0532C88.9853 43.4466 88.7026 42.8484 88.4148 42.2586L87.5161 42.6971ZM89.1508 46.2713C89.2812 46.5758 89.4102 46.8825 89.538 47.1912L90.462 46.8088C90.3327 46.4964 90.2021 46.186 90.0702 45.8778L89.1508 46.2713ZM89.538 47.1912C89.6637 47.4949 89.7878 47.7999 89.9104 48.1061L90.8388 47.7343C90.7147 47.4246 90.5892 47.1161 90.462 46.8088L89.538 47.1912ZM90.6281 49.9574C90.8612 50.5784 91.0884 51.2039 91.3101 51.8339L92.2533 51.5019C92.0295 50.8657 91.7999 50.2337 91.5644 49.6061L90.6281 49.9574ZM91.9497 53.7093C92.1577 54.3385 92.3605 54.9718 92.5585 55.6089L93.5135 55.3121C93.3138 54.6695 93.1091 54.0306 92.8992 53.3955L91.9497 53.7093ZM93.1325 57.513C93.3182 58.1477 93.4993 58.7859 93.6762 59.4274L94.6402 59.1616C94.462 58.5153 94.2795 57.8721 94.0923 57.2323L93.1325 57.513ZM94.1932 61.3577C94.3594 61.9966 94.5217 62.6385 94.6803 63.2831L95.6513 63.0442C95.4917 62.3954 95.3283 61.7493 95.161 61.1059L94.1932 61.3577ZM95.1452 65.2251C95.2955 65.8703 95.4423 66.5181 95.586 67.1682L96.5624 66.9524C96.418 66.2988 96.2703 65.6473 96.1191 64.9983L95.1452 65.2251ZM96.0057 69.1161C96.1425 69.7672 96.2763 70.4205 96.4074 71.0757L97.388 70.8795C97.2563 70.2213 97.1218 69.5649 96.9843 68.9105L96.0057 69.1161ZM96.7892 73.0285C96.914 73.6812 97.0363 74.3356 97.1563 74.9916L98.14 74.8116C98.0195 74.1532 97.8967 73.4962 97.7715 72.8408L96.7892 73.0285ZM97.5087 76.9569C97.6236 77.6108 97.7365 78.2661 97.8476 78.9224L98.8335 78.7555C98.7221 78.0972 98.6088 77.4399 98.4936 76.7838L97.5087 76.9569ZM98.1757 80.8948C98.283 81.5506 98.3887 82.2073 98.4931 82.8648L99.4807 82.708C99.3761 82.0491 99.2701 81.3908 99.1626 80.7333L98.1757 80.8948ZM98.802 84.8381C98.9038 85.4963 99.0043 86.155 99.104 86.814L100.093 86.6646C99.993 86.0045 99.8922 85.3447 99.7903 84.6854L98.802 84.8381ZM99.3998 88.7897C99.4977 89.4485 99.5947 90.1076 99.6913 90.7667L100.681 90.6217C100.584 89.9621 100.487 89.3024 100.389 88.6429L99.3998 88.7897ZM99.9798 92.7454C100.076 93.4051 100.171 94.0647 100.266 94.724L101.256 94.5808C101.161 93.9215 101.065 93.2617 100.969 92.6016L99.9798 92.7454ZM100.553 96.701C100.648 97.3622 100.744 98.023 100.84 98.6831L101.83 98.5389C101.734 97.8792 101.638 97.2187 101.542 96.5576L100.553 96.701ZM101.13 100.661C101.227 101.322 101.325 101.981 101.424 102.64L102.413 102.492C102.314 101.834 102.216 101.175 102.119 100.515L101.13 100.661ZM101.723 104.621C101.824 105.28 101.925 105.937 102.028 106.594L103.016 106.439C102.913 105.784 102.812 105.128 102.712 104.47L101.723 104.621ZM102.343 108.575C102.449 109.236 102.557 109.894 102.667 110.551L103.653 110.386C103.544 109.731 103.436 109.075 103.33 108.416L102.343 108.575ZM103.002 112.522C103.117 113.183 103.233 113.842 103.352 114.499L104.336 114.322C104.218 113.667 104.102 113.01 103.987 112.351L103.002 112.522ZM103.715 116.463C103.839 117.124 103.967 117.781 104.096 118.436L105.077 118.242C104.948 117.59 104.821 116.935 104.697 116.278L103.715 116.463ZM104.496 120.4C104.633 121.055 104.772 121.707 104.915 122.356L105.892 122.141C105.75 121.496 105.611 120.847 105.475 120.196L104.496 120.4ZM105.36 124.319C105.512 124.97 105.668 125.617 105.827 126.26L106.798 126.02C106.64 125.381 106.485 124.738 106.334 124.091L105.36 124.319ZM106.325 128.213C106.496 128.862 106.672 129.507 106.851 130.148L107.814 129.877C107.636 129.242 107.462 128.602 107.292 127.958L106.325 128.213ZM107.41 132.075C107.604 132.721 107.803 133.362 108.007 133.998L108.959 133.692C108.757 133.063 108.56 132.428 108.368 131.788L107.41 132.075ZM108.637 135.895C108.858 136.536 109.084 137.17 109.316 137.799L110.254 137.453C110.025 136.831 109.801 136.203 109.583 135.57L108.637 135.895ZM110.033 139.669C110.283 140.298 110.54 140.92 110.805 141.536L111.724 141.142C111.463 140.534 111.209 139.92 110.962 139.299L110.033 139.669ZM111.623 143.371C111.907 143.984 112.199 144.59 112.499 145.188L113.392 144.739C113.097 144.151 112.81 143.555 112.53 142.951L111.623 143.371ZM113.432 146.974C113.754 147.567 114.085 148.151 114.425 148.727L115.286 148.218C114.952 147.653 114.627 147.079 114.31 146.497L113.432 146.974ZM115.485 150.447C115.849 151.013 116.224 151.571 116.608 152.119L117.427 151.545C117.05 151.008 116.683 150.461 116.326 149.906L115.485 150.447ZM117.805 153.75C118.215 154.285 118.635 154.809 119.068 155.324L119.833 154.68C119.411 154.178 118.999 153.665 118.598 153.142L117.805 153.75ZM120.404 156.842C120.862 157.337 121.331 157.822 121.812 158.295L122.513 157.582C122.044 157.12 121.586 156.647 121.139 156.164L120.404 156.842ZM123.286 159.676C123.789 160.125 124.305 160.562 124.834 160.988L125.461 160.209C124.945 159.794 124.442 159.367 123.951 158.929L123.286 159.676ZM126.434 162.211C126.98 162.606 127.538 162.99 128.109 163.362L128.655 162.524C128.097 162.161 127.553 161.787 127.021 161.401L126.434 162.211ZM129.822 164.416C130.402 164.754 130.995 165.08 131.601 165.394L132.061 164.506C131.469 164.2 130.891 163.882 130.325 163.552L129.822 164.416ZM133.411 166.278C134.017 166.557 134.635 166.824 135.266 167.079L135.641 166.152C135.025 165.902 134.421 165.642 133.829 165.37L133.411 166.278ZM137.165 167.799C137.786 168.019 138.419 168.229 139.063 168.427L139.358 167.472C138.726 167.277 138.107 167.072 137.499 166.857L137.165 167.799ZM141.032 168.99C141.665 169.157 142.309 169.315 142.963 169.462L143.182 168.486C142.54 168.342 141.908 168.187 141.288 168.023L141.032 168.99ZM144.942 169.869C145.6 169.992 146.268 170.106 146.947 170.21L147.098 169.221C146.43 169.119 145.773 169.007 145.126 168.886L144.942 169.869ZM148.911 170.478C149.576 170.559 150.25 170.63 150.935 170.692L151.025 169.696C150.35 169.635 149.686 169.565 149.032 169.485L148.911 170.478ZM152.941 170.846C153.593 170.887 154.254 170.919 154.924 170.944L154.961 169.945C154.3 169.92 153.647 169.888 153.004 169.848L152.941 170.846ZM156.961 170.994C157.305 170.998 157.652 171 158 171V170C157.655 170 157.313 169.998 156.973 169.994L156.961 170.994ZM158 171C158.345 171 158.688 170.997 159.028 170.992L159.013 169.992C158.678 169.997 158.34 170 158 170V171ZM161.048 170.931C161.713 170.901 162.37 170.861 163.018 170.81L162.941 169.813C162.303 169.863 161.657 169.903 161.002 169.932L161.048 170.931ZM165.002 170.624C165.679 170.549 166.346 170.462 167.004 170.365L166.859 169.376C166.212 169.471 165.556 169.556 164.892 169.63L165.002 170.624ZM168.953 170.042C169.618 169.918 170.273 169.784 170.919 169.638L170.699 168.663C170.066 168.806 169.423 168.938 168.771 169.058L168.953 170.042ZM172.87 169.157C173.51 168.985 174.141 168.801 174.762 168.607L174.464 167.653C173.855 167.843 173.238 168.023 172.61 168.191L172.87 169.157ZM176.683 167.959C177.314 167.731 177.934 167.491 178.545 167.239L178.163 166.314C177.567 166.561 176.96 166.796 176.342 167.019L176.683 167.959ZM180.373 166.436C180.984 166.15 181.585 165.853 182.175 165.543L181.711 164.658C181.135 164.96 180.547 165.251 179.95 165.529L180.373 166.436ZM183.915 164.58C184.497 164.24 185.069 163.888 185.63 163.524L185.085 162.685C184.538 163.04 183.98 163.384 183.411 163.716L183.915 164.58ZM187.283 162.397C187.826 162.007 188.36 161.607 188.883 161.195L188.264 160.409C187.753 160.812 187.232 161.203 186.7 161.584L187.283 162.397ZM190.429 159.92C190.934 159.484 191.429 159.038 191.915 158.581L191.229 157.853C190.754 158.3 190.27 158.737 189.776 159.163L190.429 159.92ZM193.342 157.178C193.808 156.701 194.264 156.213 194.711 155.716L193.967 155.048C193.529 155.535 193.082 156.012 192.626 156.48L193.342 157.178ZM196.016 154.206C196.442 153.694 196.858 153.173 197.265 152.643L196.473 152.033C196.073 152.553 195.664 153.065 195.247 153.567L196.016 154.206ZM198.456 151.037C198.841 150.497 199.218 149.95 199.586 149.394L198.753 148.841C198.391 149.387 198.02 149.926 197.642 150.456L198.456 151.037ZM200.668 147.705C201.016 147.144 201.355 146.575 201.687 146L200.821 145.5C200.494 146.067 200.16 146.627 199.818 147.179L200.668 147.705ZM202.661 144.255C202.976 143.671 203.284 143.082 203.584 142.487L202.692 142.036C202.395 142.623 202.092 143.205 201.781 143.78L202.661 144.255ZM204.459 140.699C204.744 140.097 205.022 139.49 205.294 138.877L204.38 138.471C204.111 139.077 203.836 139.677 203.555 140.271L204.459 140.699ZM206.078 137.057C206.334 136.446 206.583 135.829 206.827 135.208L205.896 134.843C205.655 135.457 205.408 136.067 205.155 136.672L206.078 137.057ZM207.537 133.347C207.766 132.727 207.99 132.104 208.208 131.477L207.264 131.148C207.047 131.769 206.826 132.386 206.599 133L207.537 133.347ZM208.849 129.585C209.055 128.959 209.257 128.329 209.453 127.696L208.498 127.399C208.303 128.027 208.104 128.652 207.899 129.273L208.849 129.585ZM210.029 125.792C210.216 125.155 210.398 124.517 210.576 123.875L209.613 123.607C209.436 124.244 209.255 124.878 209.069 125.51L210.029 125.792ZM211.094 121.961C211.263 121.32 211.427 120.677 211.588 120.033L210.618 119.791C210.458 120.431 210.295 121.07 210.127 121.706L211.094 121.961ZM212.058 118.101C212.21 117.458 212.359 116.813 212.504 116.167L211.528 115.947C211.384 116.59 211.236 117.231 211.084 117.871L212.058 118.101ZM212.93 114.224C213.068 113.577 213.203 112.929 213.335 112.28L212.355 112.081C212.224 112.726 212.089 113.371 211.952 114.014L212.93 114.224ZM213.722 110.332C213.848 109.682 213.971 109.032 214.092 108.381L213.108 108.199C212.988 108.847 212.866 109.495 212.74 110.142L213.722 110.332ZM214.445 106.427C214.56 105.775 214.673 105.123 214.784 104.472L213.798 104.305C213.688 104.954 213.575 105.603 213.46 106.252L214.445 106.427ZM215.108 102.513C215.215 101.858 215.319 101.205 215.421 100.551L214.433 100.397C214.331 101.048 214.227 101.7 214.121 102.352L215.108 102.513ZM215.721 98.5942C215.82 97.9374 215.917 97.2816 216.012 96.627L215.022 96.483C214.927 97.1361 214.831 97.7903 214.732 98.4453L215.721 98.5942ZM216.293 94.6635C216.385 94.0088 216.476 93.3556 216.565 92.7042L215.574 92.5684C215.485 93.2187 215.395 93.8706 215.303 94.524L216.293 94.6635ZM216.832 90.7311C216.92 90.0754 217.006 89.4218 217.092 88.7706L216.1 88.6407C216.015 89.2912 215.928 89.9439 215.841 90.5986L216.832 90.7311ZM217.347 86.8023C217.432 86.1428 217.516 85.4861 217.6 84.8324L216.608 84.7059C216.524 85.3592 216.44 86.0155 216.355 86.6744L217.347 86.8023ZM217.848 82.881C217.932 82.2168 218.016 81.5557 218.099 80.8989L217.107 80.7732C217.023 81.4304 216.94 82.0909 216.856 82.7552L217.848 82.881ZM218.348 78.9396C218.432 78.2798 218.516 77.6244 218.6 76.9737L217.608 76.8458C217.524 77.4971 217.44 78.1531 217.356 78.8132L218.348 78.9396ZM218.856 75.0042C218.942 74.3505 219.028 73.7021 219.115 73.0593L218.124 72.9257C218.037 73.5697 217.95 74.2192 217.864 74.8738L218.856 75.0042ZM219.386 71.0779C219.478 70.4237 219.57 69.7759 219.663 69.135L218.673 68.9913C218.58 69.6342 218.487 70.2839 218.396 70.9397L219.386 71.0779ZM219.956 67.1634C220.056 66.5067 220.158 65.858 220.261 65.2177L219.274 65.0583C219.17 65.7017 219.068 66.3533 218.968 67.0126L219.956 67.1634ZM220.587 63.2635C220.701 62.6054 220.816 61.9574 220.935 61.3199L219.951 61.1374C219.832 61.7794 219.716 62.4317 219.602 63.0936L220.587 63.2635ZM221.309 59.3826C221.442 58.7262 221.578 58.0825 221.717 57.4522L220.741 57.2359C220.6 57.8728 220.463 58.5227 220.329 59.1848L221.309 59.3826ZM222.165 55.5316C222.325 54.8829 222.489 54.2507 222.659 53.6358L221.695 53.3697C221.523 53.9944 221.356 54.6357 221.194 55.2928L222.165 55.5316ZM223.218 51.7379C223.417 51.1082 223.622 50.5003 223.835 49.9152L222.895 49.5732C222.677 50.1733 222.467 50.7951 222.264 51.4376L223.218 51.7379ZM224.565 48.0707C224.692 47.7776 224.821 47.4919 224.952 47.2137L224.048 46.7863C223.911 47.0753 223.778 47.3714 223.647 47.6743L224.565 48.0707ZM224.952 47.2137C225.094 46.914 225.238 46.6157 225.385 46.3187L224.489 45.875C224.339 46.1773 224.192 46.4811 224.048 46.7863L224.952 47.2137ZM226.299 44.5533C226.614 43.9701 226.939 43.3924 227.274 42.8203L226.411 42.3149C226.071 42.8968 225.74 43.4845 225.419 44.078L226.299 44.5533ZM228.308 41.1213C228.662 40.5608 229.026 40.006 229.398 39.4567L228.571 38.8954C228.192 39.4535 227.823 40.0174 227.463 40.5872L228.308 41.1213ZM230.541 37.8275C230.931 37.2908 231.328 36.7598 231.734 36.2345L230.943 35.6229C230.531 36.1562 230.127 36.6953 229.732 37.2404L230.541 37.8275ZM232.976 34.6772C233.397 34.1644 233.826 33.6574 234.262 33.1562L233.507 32.4997C233.065 33.008 232.63 33.5223 232.203 34.0426L232.976 34.6772ZM235.59 31.6722C236.04 31.1837 236.496 30.701 236.959 30.2242L236.242 29.5276C235.773 30.0107 235.31 30.4998 234.854 30.995L235.59 31.6722ZM238.366 28.8126C238.841 28.3482 239.322 27.8898 239.809 27.4374L239.128 26.7049C238.635 27.163 238.148 27.6272 237.667 28.0975L238.366 28.8126ZM241.286 26.0981C241.784 25.6576 242.287 25.2232 242.795 24.7948L242.151 24.0303C241.637 24.4637 241.128 24.9033 240.624 25.3492L241.286 26.0981ZM244.335 23.5273C244.854 23.1103 245.377 22.6995 245.904 22.2949L245.295 21.5015C244.762 21.9107 244.233 22.3262 243.708 22.748L244.335 23.5273ZM247.5 21.0981C248.037 20.7047 248.578 20.3177 249.121 19.937L248.548 19.1177C247.998 19.5025 247.452 19.8938 246.909 20.2915L247.5 21.0981ZM250.769 18.8097C251.323 18.4392 251.881 18.0753 252.44 17.7178L251.902 16.8751C251.336 17.2362 250.774 17.604 250.214 17.9784L250.769 18.8097ZM254.132 16.6618C254.702 16.3144 255.274 15.9737 255.847 15.6398L255.344 14.7756C254.765 15.1129 254.187 15.4571 253.611 15.8081L254.132 16.6618ZM257.583 14.6525C258.167 14.3285 258.752 14.0115 259.337 13.7015L258.87 12.8176C258.278 13.1307 257.687 13.4509 257.098 13.7783L257.583 14.6525ZM261.109 12.787C261.706 12.4859 262.305 12.1922 262.903 11.9059L262.471 11.0039C261.867 11.293 261.263 11.5897 260.659 11.8938L261.109 12.787ZM264.713 11.0623C265.322 10.7861 265.93 10.5177 266.537 10.2571L266.143 9.3381C265.529 9.60141 264.915 9.87262 264.3 10.1517L264.713 11.0623ZM268.377 9.49032C268.999 9.23858 269.619 8.9952 270.238 8.76024L269.883 7.82544C269.258 8.06294 268.63 8.30893 268.002 8.56333L268.377 9.49032ZM272.112 8.07145C272.744 7.84709 273.373 7.63174 273.999 7.42547L273.685 6.47576C273.053 6.68443 272.416 6.90222 271.777 7.12908L272.112 8.07145ZM275.897 6.82408C276.539 6.62894 277.177 6.44368 277.81 6.26837L277.543 5.30467C276.902 5.48221 276.256 5.66977 275.606 5.86727L275.897 6.82408ZM279.741 5.76028C280.395 5.59745 281.042 5.44572 281.682 5.30518L281.468 4.32843C280.818 4.47102 280.162 4.62488 279.499 4.78991L279.741 5.76028ZM283.634 4.90718C284.298 4.78252 284.952 4.67057 285.596 4.57141L285.444 3.58305C284.788 3.68394 284.123 3.79776 283.45 3.92439L283.634 4.90718ZM287.566 4.30442C288.238 4.22612 288.897 4.16284 289.542 4.11467L289.468 3.11745C288.808 3.16668 288.135 3.23131 287.45 3.31114L287.566 4.30442Z" fill="#C2C2C2"/>
</svg>
