<svg width="225" height="81" viewBox="0 0 225 81" fill="none" xmlns="http://www.w3.org/2000/svg">
<path d="M50.75 32.5625V59H41.75V25.1875H50.2188L50.75 32.5625ZM60.9375 24.9688L60.7812 33.3125C60.3438 33.25 59.8125 33.1979 59.1875 33.1562C58.5833 33.0938 58.0312 33.0625 57.5312 33.0625C56.2604 33.0625 55.1562 33.2292 54.2188 33.5625C53.3021 33.875 52.5312 34.3438 51.9062 34.9688C51.3021 35.5938 50.8438 36.3542 50.5312 37.25C50.2396 38.1458 50.0729 39.1667 50.0312 40.3125L48.2188 39.75C48.2188 37.5625 48.4375 35.5521 48.875 33.7188C49.3125 31.8646 49.9479 30.25 50.7812 28.875C51.6354 27.5 52.6771 26.4375 53.9062 25.6875C55.1354 24.9375 56.5417 24.5625 58.125 24.5625C58.625 24.5625 59.1354 24.6042 59.6562 24.6875C60.1771 24.75 60.6042 24.8438 60.9375 24.9688ZM74.6875 25.1875V59H65.6562V25.1875H74.6875ZM65.0938 16.375C65.0938 15.0625 65.5521 13.9792 66.4688 13.125C67.3854 12.2708 68.6146 11.8438 70.1562 11.8438C71.6771 11.8438 72.8958 12.2708 73.8125 13.125C74.75 13.9792 75.2188 15.0625 75.2188 16.375C75.2188 17.6875 74.75 18.7708 73.8125 19.625C72.8958 20.4792 71.6771 20.9062 70.1562 20.9062C68.6146 20.9062 67.3854 20.4792 66.4688 19.625C65.5521 18.7708 65.0938 17.6875 65.0938 16.375ZM103.531 25.1875H111.688V57.875C111.688 60.9583 111 63.5729 109.625 65.7188C108.271 67.8854 106.375 69.5208 103.938 70.625C101.5 71.75 98.6667 72.3125 95.4375 72.3125C94.0208 72.3125 92.5208 72.125 90.9375 71.75C89.375 71.375 87.875 70.7917 86.4375 70C85.0208 69.2083 83.8333 68.2083 82.875 67L86.8438 61.6875C87.8854 62.8958 89.0938 63.8333 90.4688 64.5C91.8438 65.1875 93.3646 65.5312 95.0312 65.5312C96.6562 65.5312 98.0312 65.2292 99.1562 64.625C100.281 64.0417 101.146 63.1771 101.75 62.0312C102.354 60.9062 102.656 59.5417 102.656 57.9375V33L103.531 25.1875ZM80.7812 42.5V41.8438C80.7812 39.2604 81.0938 36.9167 81.7188 34.8125C82.3646 32.6875 83.2708 30.8646 84.4375 29.3438C85.625 27.8229 87.0625 26.6458 88.75 25.8125C90.4375 24.9792 92.3438 24.5625 94.4688 24.5625C96.7188 24.5625 98.6042 24.9792 100.125 25.8125C101.646 26.6458 102.896 27.8333 103.875 29.375C104.854 30.8958 105.615 32.6979 106.156 34.7812C106.719 36.8438 107.156 39.1042 107.469 41.5625V43C107.156 45.3542 106.688 47.5417 106.062 49.5625C105.438 51.5833 104.615 53.3542 103.594 54.875C102.573 56.375 101.302 57.5417 99.7812 58.375C98.2812 59.2083 96.4896 59.625 94.4062 59.625C92.3229 59.625 90.4375 59.1979 88.75 58.3438C87.0833 57.4896 85.6562 56.2917 84.4688 54.75C83.2812 53.2083 82.3646 51.3958 81.7188 49.3125C81.0938 47.2292 80.7812 44.9583 80.7812 42.5ZM89.7812 41.8438V42.5C89.7812 43.8958 89.9167 45.1979 90.1875 46.4062C90.4583 47.6146 90.875 48.6875 91.4375 49.625C92.0208 50.5417 92.7396 51.2604 93.5938 51.7812C94.4688 52.2812 95.5 52.5312 96.6875 52.5312C98.3333 52.5312 99.6771 52.1875 100.719 51.5C101.76 50.7917 102.542 49.8229 103.062 48.5938C103.583 47.3646 103.885 45.9479 103.969 44.3438V40.25C103.927 38.9375 103.75 37.7604 103.438 36.7188C103.125 35.6562 102.688 34.75 102.125 34C101.562 33.25 100.833 32.6667 99.9375 32.25C99.0417 31.8333 97.9792 31.625 96.75 31.625C95.5625 31.625 94.5312 31.8958 93.6562 32.4375C92.8021 32.9583 92.0833 33.6771 91.5 34.5938C90.9375 35.5104 90.5104 36.5938 90.2188 37.8438C89.9271 39.0729 89.7812 40.4062 89.7812 41.8438ZM127.469 11V59H118.469V11H127.469ZM126.188 40.9062H123.719C123.74 38.5521 124.052 36.3854 124.656 34.4062C125.26 32.4062 126.125 30.6771 127.25 29.2188C128.375 27.7396 129.719 26.5938 131.281 25.7812C132.865 24.9688 134.615 24.5625 136.531 24.5625C138.198 24.5625 139.708 24.8021 141.062 25.2812C142.438 25.7396 143.615 26.4896 144.594 27.5312C145.594 28.5521 146.365 29.8958 146.906 31.5625C147.448 33.2292 147.719 35.25 147.719 37.625V59H138.656V37.5625C138.656 36.0625 138.438 34.8854 138 34.0312C137.583 33.1562 136.969 32.5417 136.156 32.1875C135.365 31.8125 134.385 31.625 133.219 31.625C131.927 31.625 130.823 31.8646 129.906 32.3438C129.01 32.8229 128.292 33.4896 127.75 34.3438C127.208 35.1771 126.812 36.1562 126.562 37.2812C126.312 38.4062 126.188 39.6146 126.188 40.9062ZM171.125 25.1875V31.5625H151.438V25.1875H171.125ZM156.312 16.8438H165.312V48.8125C165.312 49.7917 165.438 50.5417 165.688 51.0625C165.958 51.5833 166.354 51.9479 166.875 52.1562C167.396 52.3438 168.052 52.4375 168.844 52.4375C169.406 52.4375 169.906 52.4167 170.344 52.375C170.802 52.3125 171.188 52.25 171.5 52.1875L171.531 58.8125C170.76 59.0625 169.927 59.2604 169.031 59.4062C168.135 59.5521 167.146 59.625 166.062 59.625C164.083 59.625 162.354 59.3021 160.875 58.6562C159.417 57.9896 158.292 56.9271 157.5 55.4688C156.708 54.0104 156.312 52.0938 156.312 49.7188V16.8438Z" fill="#C8C8C8"/>
<path d="M7.91992 44.7812V59H5V44.7812H7.91992ZM12.2949 44.7812V47.0762H0.693359V44.7812H12.2949ZM16.5332 44V59H13.7207V44H16.5332ZM16.1328 53.3457H15.3613C15.3678 52.61 15.4655 51.9329 15.6543 51.3145C15.8431 50.6895 16.1133 50.1491 16.4648 49.6934C16.8164 49.2311 17.2363 48.873 17.7246 48.6191C18.2194 48.3652 18.7663 48.2383 19.3652 48.2383C19.8861 48.2383 20.3581 48.3132 20.7812 48.4629C21.2109 48.6061 21.5788 48.8405 21.8848 49.166C22.1973 49.485 22.4382 49.9049 22.6074 50.4258C22.7767 50.9466 22.8613 51.5781 22.8613 52.3203V59H20.0293V52.3008C20.0293 51.832 19.9609 51.4642 19.8242 51.1973C19.694 50.9238 19.502 50.7318 19.248 50.6211C19.0007 50.5039 18.6947 50.4453 18.3301 50.4453C17.9264 50.4453 17.5814 50.5202 17.2949 50.6699C17.015 50.8197 16.7904 51.028 16.6211 51.2949C16.4518 51.5553 16.3281 51.8613 16.25 52.2129C16.1719 52.5645 16.1328 52.9421 16.1328 53.3457ZM29.8633 59.1953C29.043 59.1953 28.3073 59.0651 27.6562 58.8047C27.0052 58.5378 26.4518 58.1699 25.9961 57.7012C25.5469 57.2324 25.2018 56.6888 24.9609 56.0703C24.7201 55.4453 24.5996 54.7812 24.5996 54.0781V53.6875C24.5996 52.8867 24.7135 52.1543 24.9414 51.4902C25.1693 50.8262 25.4948 50.25 25.918 49.7617C26.3477 49.2734 26.8685 48.8991 27.4805 48.6387C28.0924 48.3717 28.7826 48.2383 29.5508 48.2383C30.2995 48.2383 30.9635 48.362 31.543 48.6094C32.1224 48.8568 32.6074 49.2083 32.998 49.6641C33.3952 50.1198 33.6947 50.6667 33.8965 51.3047C34.0983 51.9362 34.1992 52.6393 34.1992 53.4141V54.5859H25.8008V52.7109H31.4355V52.4961C31.4355 52.1055 31.3639 51.7572 31.2207 51.4512C31.084 51.1387 30.8757 50.8913 30.5957 50.709C30.3158 50.5267 29.9577 50.4355 29.5215 50.4355C29.1504 50.4355 28.8314 50.5169 28.5645 50.6797C28.2975 50.8424 28.0794 51.0703 27.9102 51.3633C27.7474 51.6562 27.6237 52.0013 27.5391 52.3984C27.4609 52.7891 27.4219 53.2188 27.4219 53.6875V54.0781C27.4219 54.5013 27.4805 54.8919 27.5977 55.25C27.7214 55.6081 27.8939 55.9173 28.1152 56.1777C28.3431 56.4382 28.6165 56.64 28.9355 56.7832C29.2611 56.9264 29.6289 56.998 30.0391 56.998C30.5469 56.998 31.0189 56.9004 31.4551 56.7051C31.8978 56.5033 32.2786 56.2005 32.5977 55.7969L33.9648 57.2812C33.7435 57.6003 33.4408 57.9062 33.0566 58.1992C32.679 58.4922 32.2233 58.7331 31.6895 58.9219C31.1556 59.1042 30.5469 59.1953 29.8633 59.1953Z" fill="#CACACA"/>
<path d="M190.445 55.6084L180.264 52.752V50.4287L184.263 51.1777L194 54.0342V55.9766L190.445 55.6084ZM180.264 57.0557L190.433 55.0117L194 54.8213V57.1064L180.264 60.585V57.0557ZM190.268 47.8135L180.264 45.8203V42.2783L194 45.7568V48.0293L190.268 47.8135ZM180.264 50.1113L190.369 47.2676L194 46.874V48.8291L184.275 51.6855L180.264 52.4092V50.1113ZM190.902 33.0234H184.783C184.343 33.0234 183.966 33.0954 183.653 33.2393C183.332 33.3831 183.082 33.6074 182.904 33.9121C182.727 34.2083 182.638 34.5934 182.638 35.0674C182.638 35.4736 182.71 35.8249 182.854 36.1211C182.989 36.4173 183.188 36.6458 183.45 36.8066C183.704 36.9674 184.005 37.0479 184.352 37.0479V40.7041C183.768 40.7041 183.213 40.5687 182.688 40.2979C182.164 40.027 181.702 39.6335 181.305 39.1172C180.898 38.6009 180.581 37.9873 180.353 37.2764C180.124 36.557 180.01 35.7529 180.01 34.8643C180.01 33.7979 180.188 32.8499 180.543 32.0205C180.898 31.1911 181.432 30.5394 182.143 30.0654C182.854 29.583 183.742 29.3418 184.809 29.3418H190.687C191.44 29.3418 192.058 29.2952 192.54 29.2021C193.014 29.109 193.429 28.9736 193.784 28.7959H194V32.4902C193.628 32.668 193.162 32.8034 192.604 32.8965C192.036 32.9811 191.469 33.0234 190.902 33.0234ZM185.634 32.541L187.703 32.5156V34.5596C187.703 35.042 187.758 35.4609 187.868 35.8164C187.978 36.1719 188.135 36.4639 188.338 36.6924C188.533 36.9209 188.761 37.0902 189.023 37.2002C189.286 37.3018 189.574 37.3525 189.887 37.3525C190.2 37.3525 190.483 37.2806 190.737 37.1367C190.983 36.9928 191.177 36.7855 191.321 36.5146C191.457 36.2438 191.524 35.9264 191.524 35.5625C191.524 35.0124 191.414 34.5342 191.194 34.1279C190.974 33.7217 190.703 33.4085 190.382 33.1885C190.06 32.96 189.756 32.8415 189.468 32.833L191.017 31.8682C191.364 32.0036 191.723 32.1898 192.096 32.4268C192.468 32.6553 192.819 32.9473 193.149 33.3027C193.471 33.6582 193.738 34.0856 193.949 34.585C194.152 35.0843 194.254 35.6768 194.254 36.3623C194.254 37.234 194.08 38.0254 193.733 38.7363C193.378 39.4388 192.891 39.9974 192.273 40.4121C191.647 40.8184 190.936 41.0215 190.141 41.0215C189.421 41.0215 188.782 40.8861 188.224 40.6152C187.665 40.3444 187.195 39.9466 186.814 39.4219C186.425 38.8887 186.133 38.2243 185.938 37.4287C185.735 36.6331 185.634 35.7106 185.634 34.6611V32.541ZM192.451 22.6514L180.264 19.0078V15.085L196.069 20.6074C196.416 20.7259 196.789 20.8867 197.187 21.0898C197.584 21.2845 197.961 21.5511 198.316 21.8896C198.68 22.2197 198.977 22.6387 199.205 23.1465C199.434 23.6458 199.548 24.2594 199.548 24.9873C199.548 25.3343 199.527 25.6178 199.484 25.8379C199.442 26.0579 199.383 26.3203 199.307 26.625H196.628C196.628 26.5319 196.628 26.4346 196.628 26.333C196.636 26.2314 196.641 26.1341 196.641 26.041C196.641 25.5586 196.586 25.165 196.476 24.8604C196.366 24.5557 196.196 24.3102 195.968 24.124C195.748 23.9378 195.46 23.7897 195.104 23.6797L192.451 22.6514ZM180.264 24.1748L190.217 21.1914L194.089 20.6709L194.355 23.1592L180.264 28.0977V24.1748Z" fill="#B9C4EC"/>
<path d="M117.505 75L118.585 71.616H115.939L116.155 70.914H118.801L119.701 68.034L117.055 68.016L117.289 67.314H119.935L120.763 64.686H121.465L120.637 67.314H123.589L124.417 64.686H125.137L124.291 67.314H126.901L126.667 68.034H124.075L123.175 70.914H125.785L125.551 71.616H122.941L121.897 75H121.159L122.239 71.616H119.287L118.207 75H117.505ZM119.503 70.914H122.455L123.355 68.034H120.403L119.503 70.914ZM128.419 75V64.362H133.639V75H132.433V65.19H129.607V75H128.419ZM135.35 77.088V66.09H136.394L136.43 66.882C136.538 66.63 136.712 66.414 136.952 66.234C137.192 66.054 137.588 65.964 138.14 65.964C138.704 65.964 139.136 66.06 139.436 66.252C139.736 66.444 139.946 66.708 140.066 67.044C140.186 67.38 140.246 67.77 140.246 68.214V72.606C140.246 73.098 140.192 73.536 140.084 73.92C139.976 74.304 139.772 74.604 139.472 74.82C139.172 75.024 138.728 75.126 138.14 75.126C137.684 75.126 137.318 75.054 137.042 74.91C136.778 74.766 136.58 74.586 136.448 74.37V77.088H135.35ZM137.798 74.442C138.134 74.442 138.392 74.394 138.572 74.298C138.752 74.202 138.884 74.076 138.968 73.92C139.052 73.752 139.1 73.572 139.112 73.38C139.124 73.176 139.13 72.96 139.13 72.732V68.394C139.13 68.166 139.124 67.956 139.112 67.764C139.1 67.56 139.052 67.374 138.968 67.206C138.884 67.038 138.752 66.906 138.572 66.81C138.392 66.714 138.134 66.666 137.798 66.666C137.462 66.666 137.204 66.726 137.024 66.846C136.844 66.966 136.712 67.128 136.628 67.332C136.544 67.524 136.496 67.734 136.484 67.962C136.472 68.19 136.466 68.406 136.466 68.61V72.858C136.466 73.146 136.49 73.416 136.538 73.668C136.598 73.908 136.718 74.1 136.898 74.244C137.09 74.376 137.39 74.442 137.798 74.442ZM143.544 75.126C143.268 75.126 142.986 75.084 142.698 75C142.422 74.928 142.182 74.754 141.978 74.478C141.786 74.19 141.69 73.746 141.69 73.146V72.282C141.69 71.682 141.87 71.202 142.23 70.842C142.602 70.47 143.106 70.14 143.742 69.852C144.15 69.648 144.48 69.468 144.732 69.312C144.996 69.156 145.194 68.982 145.326 68.79C145.458 68.598 145.524 68.34 145.524 68.016V67.638C145.524 67.35 145.464 67.128 145.344 66.972C145.224 66.816 145.062 66.708 144.858 66.648C144.666 66.588 144.462 66.558 144.246 66.558C143.706 66.558 143.352 66.708 143.184 67.008C143.016 67.296 142.932 67.728 142.932 68.304V69.06H141.906V68.196C141.906 67.752 141.966 67.362 142.086 67.026C142.206 66.678 142.434 66.408 142.77 66.216C143.106 66.012 143.598 65.91 144.246 65.91C144.93 65.91 145.44 65.988 145.776 66.144C146.124 66.3 146.352 66.522 146.46 66.81C146.58 67.098 146.64 67.44 146.64 67.836V75H145.542L145.524 73.884C145.38 74.292 145.122 74.604 144.75 74.82C144.378 75.024 143.976 75.126 143.544 75.126ZM143.958 74.37C144.498 74.37 144.888 74.178 145.128 73.794C145.38 73.41 145.506 72.9 145.506 72.264V69.42C145.386 69.612 145.188 69.786 144.912 69.942C144.636 70.098 144.354 70.254 144.066 70.41C143.658 70.65 143.34 70.902 143.112 71.166C142.896 71.418 142.788 71.772 142.788 72.228V72.93C142.788 73.362 142.848 73.68 142.968 73.884C143.088 74.088 143.238 74.22 143.418 74.28C143.598 74.34 143.778 74.37 143.958 74.37ZM148.194 75V66.09H151.38C151.992 66.09 152.484 66.234 152.856 66.522C153.228 66.798 153.414 67.254 153.414 67.89V68.556C153.414 69.12 153.252 69.558 152.928 69.87C152.616 70.17 152.196 70.326 151.668 70.338V70.302C152.208 70.302 152.658 70.458 153.018 70.77C153.378 71.07 153.558 71.562 153.558 72.246V72.804C153.558 73.404 153.462 73.866 153.27 74.19C153.078 74.502 152.802 74.718 152.442 74.838C152.094 74.946 151.686 75 151.218 75H148.194ZM149.382 74.37H150.948C151.236 74.37 151.482 74.334 151.686 74.262C151.902 74.178 152.064 74.028 152.172 73.812C152.292 73.584 152.352 73.254 152.352 72.822V72.12C152.352 71.76 152.28 71.484 152.136 71.292C152.004 71.1 151.824 70.968 151.596 70.896C151.38 70.812 151.128 70.77 150.84 70.77H149.382V74.37ZM149.382 69.996H150.822C151.314 69.996 151.68 69.888 151.92 69.672C152.172 69.456 152.298 69.114 152.298 68.646V67.89C152.298 67.53 152.178 67.254 151.938 67.062C151.71 66.87 151.422 66.774 151.074 66.774H149.382V69.996ZM155.085 75V66.108H156.093V72.948L159.081 66.108H160.089V75H159.099V67.908C158.583 69.096 158.073 70.278 157.569 71.454C157.077 72.63 156.567 73.812 156.039 75H155.085ZM161.157 75V74.352C161.397 74.352 161.595 74.244 161.751 74.028C161.919 73.8 162.021 73.464 162.057 73.02L162.633 66.108H167.133V75H165.999V66.918H163.749L163.173 73.326C163.161 73.482 163.137 73.656 163.101 73.848C163.065 74.04 162.999 74.226 162.903 74.406C162.819 74.574 162.687 74.718 162.507 74.838C162.327 74.946 162.087 75 161.787 75H161.157ZM168.62 75V66.126H169.736V68.898H171.518C172.07 68.898 172.502 68.982 172.814 69.15C173.126 69.318 173.348 69.57 173.48 69.906C173.612 70.242 173.678 70.656 173.678 71.148V72.048C173.678 72.552 173.642 72.99 173.57 73.362C173.498 73.734 173.378 74.04 173.21 74.28C173.042 74.52 172.814 74.7 172.526 74.82C172.238 74.94 171.866 75 171.41 75H168.62ZM169.736 74.352H171.194C171.59 74.352 171.884 74.28 172.076 74.136C172.268 73.98 172.394 73.77 172.454 73.506C172.526 73.242 172.562 72.948 172.562 72.624V71.364C172.562 71.052 172.532 70.764 172.472 70.5C172.424 70.236 172.304 70.026 172.112 69.87C171.92 69.702 171.614 69.618 171.194 69.618H169.736V74.352ZM175.194 75V66.09H176.31V69.888H179.136V66.09H180.252V75H179.136V70.752H176.31V75H175.194ZM181.751 75V66.126H182.867V68.898H184.649C185.201 68.898 185.633 68.982 185.945 69.15C186.257 69.318 186.479 69.57 186.611 69.906C186.743 70.242 186.809 70.656 186.809 71.148V72.048C186.809 72.552 186.773 72.99 186.701 73.362C186.629 73.734 186.509 74.04 186.341 74.28C186.173 74.52 185.945 74.7 185.657 74.82C185.369 74.94 184.997 75 184.541 75H181.751ZM182.867 74.352H184.325C184.721 74.352 185.015 74.28 185.207 74.136C185.399 73.98 185.525 73.77 185.585 73.506C185.657 73.242 185.693 72.948 185.693 72.624V71.364C185.693 71.052 185.663 70.764 185.603 70.5C185.555 70.236 185.435 70.026 185.243 69.87C185.051 69.702 184.745 69.618 184.325 69.618H182.867V74.352ZM188.519 75V66.09H189.617V75H188.519ZM191.331 75V66.108H192.339V72.948L195.327 66.108H196.335V75H195.345V67.908C194.829 69.096 194.319 70.278 193.815 71.454C193.323 72.63 192.813 73.812 192.285 75H191.331ZM193.815 65.19C193.359 65.19 193.005 65.1 192.753 64.92C192.501 64.74 192.321 64.524 192.213 64.272C192.117 64.02 192.063 63.792 192.051 63.588H192.717C192.765 63.924 192.891 64.176 193.095 64.344C193.299 64.512 193.545 64.596 193.833 64.596C194.133 64.596 194.385 64.518 194.589 64.362C194.793 64.194 194.913 63.936 194.949 63.588H195.615C195.603 63.828 195.537 64.074 195.417 64.326C195.297 64.566 195.105 64.77 194.841 64.938C194.589 65.106 194.247 65.19 193.815 65.19ZM201.175 75V66.09H206.269V75H205.153V66.918H202.291V75H201.175ZM208.27 77.106C208.018 77.106 207.79 77.088 207.586 77.052C207.394 77.016 207.244 76.986 207.136 76.962V76.296C207.172 76.32 207.25 76.344 207.37 76.368C207.502 76.392 207.652 76.404 207.82 76.404C208 76.404 208.198 76.374 208.414 76.314C208.642 76.254 208.828 76.086 208.972 75.81C209.044 75.69 209.122 75.552 209.206 75.396C209.302 75.24 209.326 75.06 209.278 74.856L207.226 66.09H208.378L210.016 73.866H209.998L211.582 66.09H212.644L210.7 74.658C210.52 75.486 210.238 76.098 209.854 76.494C209.47 76.902 208.942 77.106 208.27 77.106ZM214.937 75V66.918H213.047V66.09H217.997V66.918H216.071V75H214.937ZM218.999 75V66.126H220.115V68.898H221.897C222.449 68.898 222.881 68.982 223.193 69.15C223.505 69.318 223.727 69.57 223.859 69.906C223.991 70.242 224.057 70.656 224.057 71.148V72.048C224.057 72.552 224.021 72.99 223.949 73.362C223.877 73.734 223.757 74.04 223.589 74.28C223.421 74.52 223.193 74.7 222.905 74.82C222.617 74.94 222.245 75 221.789 75H218.999ZM220.115 74.352H221.573C221.969 74.352 222.263 74.28 222.455 74.136C222.647 73.98 222.773 73.77 222.833 73.506C222.905 73.242 222.941 72.948 222.941 72.624V71.364C222.941 71.052 222.911 70.764 222.851 70.5C222.803 70.236 222.683 70.026 222.491 69.87C222.299 69.702 221.993 69.618 221.573 69.618H220.115V74.352Z" fill="#CBCBCB"/>
</svg>
